<?xml version="1.0" encoding="UTF-8" standalone="no"?>
<!-- Created with Inkscape (http://www.inkscape.org/) -->

<svg
   xmlns:dc="http://purl.org/dc/elements/1.1/"
   xmlns:cc="http://creativecommons.org/ns#"
   xmlns:rdf="http://www.w3.org/1999/02/22-rdf-syntax-ns#"
   xmlns:svg="http://www.w3.org/2000/svg"
   xmlns="http://www.w3.org/2000/svg"
   xmlns:sodipodi="http://sodipodi.sourceforge.net/DTD/sodipodi-0.dtd"
   xmlns:inkscape="http://www.inkscape.org/namespaces/inkscape"
   width="210mm"
   height="297mm"
   viewBox="0 0 210 297"
   version="1.1"
   id="svg8"
   inkscape:version="0.92.3 (2405546, 2018-03-11)"
   sodipodi:docname="clock.svg">
  <defs
     id="defs2" />
  <sodipodi:namedview
     id="base"
     pagecolor="#ffffff"
     bordercolor="#666666"
     borderopacity="1.0"
     inkscape:pageopacity="0.0"
     inkscape:pageshadow="2"
     inkscape:zoom="0.7430317"
     inkscape:cx="208.70236"
     inkscape:cy="653.19409"
     inkscape:document-units="mm"
     inkscape:current-layer="layer1"
     showgrid="false"
     inkscape:window-width="1920"
     inkscape:window-height="1017"
     inkscape:window-x="-8"
     inkscape:window-y="-8"
     inkscape:window-maximized="1" />
  <metadata
     id="metadata5">
    <rdf:RDF>
      <cc:Work
         rdf:about="">
        <dc:format>image/svg+xml</dc:format>
        <dc:type
           rdf:resource="http://purl.org/dc/dcmitype/StillImage" />
        <dc:title></dc:title>
      </cc:Work>
    </rdf:RDF>
  </metadata>
  <g
     inkscape:label="Layer 1"
     inkscape:groupmode="layer"
     id="layer1">
    <path
       inkscape:connector-curvature="0"
       id="path4629"
       style="font-style:normal;font-variant:normal;font-weight:normal;font-stretch:condensed;font-size:medium;line-height:1.25;font-family:'Bernard MT Condensed';-inkscape-font-specification:'Bernard MT Condensed,  Condensed';font-variant-ligatures:normal;font-variant-caps:normal;font-variant-numeric:normal;font-feature-settings:normal;text-align:start;letter-spacing:0px;word-spacing:0px;writing-mode:lr-tb;text-anchor:start;fill:#000000;fill-opacity:1;stroke:none;stroke-width:0.27666765"
       d="m 101.24888,11.284407 0.72688,-1.4678973 q 0.52911,-1.0449625 0.53204,-1.2507991 0.003,-0.180109 -0.25749,-0.2793601 -0.22531,-0.09117 -0.22006,-0.4599544 0.006,-0.4116709 0.0423,-0.5236544 0.0451,-0.1121025 0.22826,-0.1146685 l 2.02246,-0.028337 q 0.21794,-0.00305 0.21464,0.2285131 l -0.009,0.6089314 q -0.002,0.171529 -0.24873,0.3293269 -0.24629,0.157798 -0.30915,0.2872956 l -2.154,4.3690211 2.13404,6.212543 q 0.10071,0.27298 0.1432,0.349557 0.0512,0.07648 0.22421,0.168354 0.20763,0.108564 0.2672,0.210626 0.0596,0.0935 0.0559,0.359358 -0.006,0.385942 -0.0776,0.549874 -0.0633,0.163808 -0.27258,0.166723 l -3.68751,0.05167 q -0.27896,0.0039 -0.27555,-0.236234 l 0.008,-0.548895 q 0.004,-0.257295 0.24971,-0.397939 0.28126,-0.166893 0.28409,-0.364122 0.004,-0.248718 -0.10538,-0.555884 l -0.779713,-2.167069 -1.085845,2.193208 q -0.224168,0.440454 -0.226978,0.637714 -0.0023,0.162955 0.317423,0.355692 0.06914,0.04191 0.111862,0.10133 0.05158,0.05072 0.04535,0.488127 -0.0054,0.377366 -0.04994,0.446589 -0.03584,0.0691 -0.201484,0.07142 l -2.100925,0.02944 q -0.270244,0.0038 -0.266824,-0.236356 l 0.009,-0.63466 q 0.0021,-0.145802 0.291954,-0.304207 0.237082,-0.12337 0.352732,-0.287909 0.124366,-0.164664 0.357863,-0.648122 L 99.416482,15.100139 97.299745,8.8959283 Q 97.191183,8.5630329 96.863703,8.3018022 96.708494,8.1839322 96.7103,8.0552999 l 0.0074,-0.5231661 q 0.0038,-0.2658713 0.343772,-0.2706339 l 3.652648,-0.051177 q 0.21794,-0.00305 0.21439,0.2456656 l -0.008,0.5917783 q -0.003,0.2315654 -0.25744,0.3294493 -0.27172,0.1067012 -0.27403,0.2696618 -0.003,0.2144127 0.13117,0.581247 z" />
    <path
       inkscape:connector-curvature="0"
       id="path4631"
       style="font-style:normal;font-variant:normal;font-weight:normal;font-stretch:condensed;font-size:medium;line-height:1.25;font-family:'Bernard MT Condensed';-inkscape-font-specification:'Bernard MT Condensed,  Condensed';font-variant-ligatures:normal;font-variant-caps:normal;font-variant-numeric:normal;font-feature-settings:normal;text-align:start;letter-spacing:0px;word-spacing:0px;writing-mode:lr-tb;text-anchor:start;fill:#000000;fill-opacity:1;stroke:none;stroke-width:0.27666765"
       d="m 105.34169,7.8657472 0.006,-0.4545547 q 0.004,-0.2658722 0.29147,-0.2699009 l 4.1757,-0.058507 q 0.23537,-0.0033 0.30426,0.055761 0.0689,0.059052 0.0646,0.3592357 -0.006,0.4545534 -0.0604,0.566781 -0.0452,0.1121025 -0.21117,0.1401545 -0.54184,0.1019195 -0.55015,0.6851167 L 109.21571,19.19878 q -0.005,0.325907 0.38496,0.509095 0.2511,0.116529 0.30206,0.210138 0.051,0.09358 0.0477,0.325174 l -0.005,0.334482 q -0.004,0.274449 -0.0567,0.309489 -0.0528,0.03501 -0.27073,0.03809 l -4.25415,0.05961 q -0.24409,0.0034 -0.2414,-0.185263 0.009,-0.617507 0.0543,-0.755342 0.0455,-0.137833 0.30817,-0.218685 0.47258,-0.135243 0.47771,-0.495455 l 0.14499,-10.1802978 q 0.005,-0.3602123 -0.0795,-0.5390961 -0.0845,-0.1874584 -0.37917,-0.3033797 -0.2166,-0.091293 -0.26792,-0.1591673 -0.0425,-0.076571 -0.0395,-0.2824136 z" />
    <path
       inkscape:connector-curvature="0"
       id="path4633"
       style="font-style:normal;font-variant:normal;font-weight:normal;font-stretch:condensed;font-size:medium;line-height:1.25;font-family:'Bernard MT Condensed';-inkscape-font-specification:'Bernard MT Condensed,  Condensed';font-variant-ligatures:normal;font-variant-caps:normal;font-variant-numeric:normal;font-feature-settings:normal;text-align:start;letter-spacing:0px;word-spacing:0px;writing-mode:lr-tb;text-anchor:start;fill:#000000;fill-opacity:1;stroke:none;stroke-width:0.27666765"
       d="m 110.57221,7.7924608 0.006,-0.4545548 q 0.004,-0.2658713 0.29146,-0.2699009 l 4.1757,-0.058507 q 0.23537,-0.0033 0.30425,0.055761 0.0689,0.059052 0.0647,0.3592353 -0.006,0.4545534 -0.0604,0.5667823 -0.0451,0.1121026 -0.21117,0.1401546 -0.54184,0.1019198 -0.55014,0.6851166 l -0.14682,10.3089474 q -0.005,0.325907 0.38496,0.509095 0.2511,0.116528 0.30206,0.210137 0.051,0.09358 0.0477,0.325174 l -0.005,0.334482 q -0.004,0.274448 -0.0567,0.309489 -0.0528,0.03501 -0.27073,0.03809 l -4.25416,0.05961 q -0.2441,0.0034 -0.24141,-0.185263 0.009,-0.617508 0.0543,-0.755342 0.0455,-0.137833 0.30817,-0.218685 0.47257,-0.135243 0.4777,-0.495456 l 0.14499,-10.1802968 q 0.005,-0.3602124 -0.0794,-0.5390983 -0.0845,-0.1874583 -0.37918,-0.3033797 -0.2166,-0.091293 -0.26792,-0.1591676 -0.0425,-0.076571 -0.0395,-0.2824136 z" />
    <path
       inkscape:connector-curvature="0"
       id="path4636"
       style="font-style:normal;font-variant:normal;font-weight:normal;font-stretch:condensed;font-size:medium;line-height:1.25;font-family:'Bernard MT Condensed';-inkscape-font-specification:'Bernard MT Condensed,  Condensed';font-variant-ligatures:normal;font-variant-caps:normal;font-variant-numeric:normal;font-feature-settings:normal;text-align:start;letter-spacing:0px;word-spacing:0px;writing-mode:lr-tb;text-anchor:start;fill:#000000;fill-opacity:1;stroke:none;stroke-width:0.27666765"
       d="m 153.47001,19.807912 0.23662,-0.396894 q 0.1384,-0.232143 0.38553,-0.09412 l 3.58701,2.003403 q 0.20218,0.112922 0.23084,0.198802 0.0287,0.08589 -0.12757,0.347994 -0.23662,0.396892 -0.33962,0.469137 -0.0954,0.07645 -0.25115,0.01944 -0.5134,-0.176941 -0.81699,0.332282 l -5.36638,9.001219 q -0.16966,0.284565 0.0691,0.637522 0.15467,0.22613 0.1505,0.3336 -0.004,0.107492 -0.1247,0.309671 l -0.17412,0.292053 q -0.14287,0.239633 -0.20568,0.24448 -0.0628,0.0048 -0.25,-0.0997 l -3.65441,-2.041049 q -0.20967,-0.117107 -0.11146,-0.281853 0.32145,-0.539174 0.4303,-0.638093 0.10885,-0.09892 0.37371,-0.04083 0.47135,0.113526 0.65886,-0.200991 l 5.29942,-8.888891 q 0.18751,-0.31452 0.20634,-0.513622 0.0233,-0.206593 -0.16877,-0.453619 -0.1381,-0.186931 -0.14731,-0.271943 0.003,-0.08829 0.10992,-0.268021 z" />
    <path
       inkscape:connector-curvature="0"
       id="path4639"
       style="font-style:normal;font-variant:normal;font-weight:normal;font-stretch:condensed;font-size:medium;line-height:1.25;font-family:'Bernard MT Condensed';-inkscape-font-specification:'Bernard MT Condensed,  Condensed';font-variant-ligatures:normal;font-variant-caps:normal;font-variant-numeric:normal;font-feature-settings:normal;text-align:start;letter-spacing:0px;word-spacing:0px;writing-mode:lr-tb;text-anchor:start;fill:#000000;fill-opacity:1;stroke:none;stroke-width:0.27666765"
       d="m 189.30989,53.333413 0.40336,-0.232883 q 0.23593,-0.136214 0.37628,0.10688 l 2.03718,3.528499 q 0.11483,0.198891 0.0956,0.288572 -0.0192,0.08972 -0.2856,0.243527 -0.40337,0.232883 -0.52785,0.245748 -0.12019,0.02032 -0.22385,-0.106491 -0.34739,-0.408375 -0.86492,-0.109581 l -9.14804,5.281621 q -0.2892,0.166971 -0.26526,0.59512 0.0168,0.275147 -0.0414,0.367685 -0.0582,0.09258 -0.26365,0.211226 l -0.29682,0.171368 q -0.24354,0.14061 -0.29953,0.11393 -0.056,-0.02667 -0.1623,-0.210777 l -2.07546,-3.594802 q -0.11908,-0.206253 0.0483,-0.302922 0.54797,-0.316369 0.69099,-0.349865 0.14302,-0.0335 0.33912,0.147972 0.34382,0.331871 0.66347,0.147326 l 9.03387,-5.21571 q 0.31965,-0.184551 0.43692,-0.350523 0.12489,-0.170368 0.0869,-0.482303 -0.0226,-0.232492 0.0128,-0.311853 0.0472,-0.07635 0.2299,-0.181807 z" />
    <path
       inkscape:connector-curvature="0"
       id="path4641"
       style="font-style:normal;font-variant:normal;font-weight:normal;font-stretch:condensed;font-size:medium;line-height:1.25;font-family:'Bernard MT Condensed';-inkscape-font-specification:'Bernard MT Condensed,  Condensed';font-variant-ligatures:normal;font-variant-caps:normal;font-variant-numeric:normal;font-feature-settings:normal;text-align:start;letter-spacing:0px;word-spacing:0px;writing-mode:lr-tb;text-anchor:start;fill:#000000;fill-opacity:1;stroke:none;stroke-width:0.27666765"
       d="m 191.86168,57.753243 0.40336,-0.232883 q 0.23593,-0.136214 0.37629,0.106888 l 2.03718,3.528499 q 0.11482,0.198883 0.0956,0.288564 -0.0192,0.08972 -0.2856,0.243527 -0.40337,0.232883 -0.52785,0.245748 -0.12019,0.02032 -0.22385,-0.106483 -0.34739,-0.408383 -0.86492,-0.109589 l -9.14804,5.28162 q -0.2892,0.166972 -0.26525,0.59513 0.0168,0.275137 -0.0414,0.367676 -0.0582,0.09258 -0.26365,0.211226 l -0.29682,0.171368 q -0.24354,0.14061 -0.29953,0.11393 -0.056,-0.02667 -0.1623,-0.210768 l -2.07546,-3.594802 q -0.11908,-0.206262 0.0483,-0.302931 0.54797,-0.316369 0.69099,-0.349865 0.14302,-0.0335 0.33912,0.147972 0.34382,0.331871 0.66347,0.147326 l 9.03387,-5.21571 q 0.31965,-0.184551 0.43692,-0.350523 0.12489,-0.170368 0.0869,-0.482303 -0.0226,-0.232492 0.0128,-0.311853 0.0472,-0.07635 0.2299,-0.181807 z" />
    <path
       inkscape:connector-curvature="0"
       id="path4644"
       style="font-style:normal;font-variant:normal;font-weight:normal;font-stretch:condensed;font-size:medium;line-height:1.25;font-family:'Bernard MT Condensed';-inkscape-font-specification:'Bernard MT Condensed,  Condensed';font-variant-ligatures:normal;font-variant-caps:normal;font-variant-numeric:normal;font-feature-settings:normal;text-align:start;letter-spacing:0px;word-spacing:0px;writing-mode:lr-tb;text-anchor:start;fill:#000000;fill-opacity:1;stroke:none;stroke-width:0.27666765"
       d="m 205.60613,100.1131 0.46203,-0.006 q 0.27024,-0.004 0.26621,0.27924 l -0.0585,4.10814 q -0.003,0.23157 -0.0653,0.30104 -0.062,0.0695 -0.36712,0.0738 -0.46203,0.006 -0.57463,-0.0434 -0.11272,-0.0413 -0.13654,-0.20387 -0.0883,-0.53041 -0.68111,-0.5221 l -10.47848,0.14682 q -0.33126,0.005 -0.52855,0.39326 -0.1256,0.25043 -0.22222,0.30323 -0.0968,0.0525 -0.332,0.0561 l -0.33998,0.005 q -0.27896,0.004 -0.3131,-0.0471 -0.0342,-0.051 -0.0311,-0.26538 l 0.0596,-4.18533 q 0.003,-0.24014 0.19521,-0.24282 0.62766,-0.009 0.76653,0.0321 0.13887,0.0409 0.21367,0.29712 0.12416,0.4613 0.4903,0.45617 l 10.34771,-0.14498 q 0.36614,-0.005 0.55042,-0.0935 0.19303,-0.0885 0.31921,-0.38176 0.099,-0.21575 0.16942,-0.26819 0.0788,-0.0443 0.28829,-0.0469 z" />
    <path
       inkscape:connector-curvature="0"
       id="path4646"
       style="font-style:normal;font-variant:normal;font-weight:normal;font-stretch:condensed;font-size:medium;line-height:1.25;font-family:'Bernard MT Condensed';-inkscape-font-specification:'Bernard MT Condensed,  Condensed';font-variant-ligatures:normal;font-variant-caps:normal;font-variant-numeric:normal;font-feature-settings:normal;text-align:start;letter-spacing:0px;word-spacing:0px;writing-mode:lr-tb;text-anchor:start;fill:#000000;fill-opacity:1;stroke:none;stroke-width:0.27666765"
       d="m 205.53284,105.25901 0.46203,-0.006 q 0.27024,-0.004 0.26621,0.27924 l -0.0585,4.10814 q -0.003,0.23156 -0.0653,0.30104 -0.062,0.0695 -0.36712,0.0738 -0.46203,0.006 -0.57463,-0.0434 -0.11271,-0.0413 -0.13654,-0.20389 -0.0883,-0.5304 -0.68111,-0.52209 l -10.47848,0.14681 q -0.33126,0.005 -0.52855,0.39326 -0.1256,0.25043 -0.22222,0.30323 -0.0968,0.0524 -0.33199,0.0561 l -0.33999,0.005 q -0.27897,0.004 -0.3131,-0.0471 -0.0341,-0.051 -0.0311,-0.26538 l 0.0596,-4.18533 q 0.003,-0.24014 0.1952,-0.24284 0.62767,-0.009 0.76654,0.0321 0.13887,0.0409 0.21367,0.29713 0.12416,0.4613 0.4903,0.45617 l 10.34771,-0.14499 q 0.36614,-0.005 0.55043,-0.0935 0.19302,-0.0885 0.3192,-0.38176 0.0989,-0.21576 0.16942,-0.26819 0.0788,-0.0444 0.2883,-0.0469 z" />
    <path
       inkscape:connector-curvature="0"
       id="path4648"
       style="font-style:normal;font-variant:normal;font-weight:normal;font-stretch:condensed;font-size:medium;line-height:1.25;font-family:'Bernard MT Condensed';-inkscape-font-specification:'Bernard MT Condensed,  Condensed';font-variant-ligatures:normal;font-variant-caps:normal;font-variant-numeric:normal;font-feature-settings:normal;text-align:start;letter-spacing:0px;word-spacing:0px;writing-mode:lr-tb;text-anchor:start;fill:#000000;fill-opacity:1;stroke:none;stroke-width:0.27666765"
       d="m 205.45956,110.40491 0.46202,-0.006 q 0.27025,-0.004 0.26622,0.27923 l -0.0585,4.10815 q -0.003,0.23156 -0.0653,0.30102 -0.062,0.0695 -0.36711,0.0738 -0.46203,0.006 -0.57463,-0.0434 -0.11272,-0.0413 -0.13655,-0.20388 -0.0883,-0.53041 -0.68111,-0.52211 l -10.47847,0.14682 q -0.33126,0.005 -0.52856,0.39327 -0.12559,0.25042 -0.22222,0.30322 -0.0968,0.0524 -0.33199,0.0561 l -0.33999,0.005 q -0.27896,0.004 -0.3131,-0.0471 -0.0342,-0.051 -0.0311,-0.26538 l 0.0596,-4.18533 q 0.003,-0.24015 0.19521,-0.24283 0.62766,-0.009 0.76653,0.0321 0.13887,0.0409 0.21368,0.29713 0.12416,0.46129 0.49029,0.45616 l 10.34772,-0.14498 q 0.36614,-0.005 0.55042,-0.0934 0.19302,-0.0885 0.31921,-0.38176 0.0989,-0.21576 0.16941,-0.26819 0.0788,-0.0443 0.2883,-0.0469 z" />
    <path
       inkscape:connector-curvature="0"
       id="path4651"
       style="font-style:normal;font-variant:normal;font-weight:normal;font-stretch:condensed;font-size:medium;line-height:1.25;font-family:'Bernard MT Condensed';-inkscape-font-specification:'Bernard MT Condensed,  Condensed';font-variant-ligatures:normal;font-variant-caps:normal;font-variant-numeric:normal;font-feature-settings:normal;text-align:start;letter-spacing:0px;word-spacing:0px;writing-mode:lr-tb;text-anchor:start;fill:#000000;fill-opacity:1;stroke:none;stroke-width:0.27666765"
       d="m 194.75447,152.21035 0.3969,0.22167 q 0.23215,0.12966 0.0848,0.37678 l -2.13852,3.587 q -0.12054,0.20219 -0.20867,0.23283 -0.0881,0.0307 -0.35024,-0.11576 -0.39689,-0.22167 -0.46745,-0.32097 -0.075,-0.0918 -0.0127,-0.24665 0.19443,-0.5103 -0.31479,-0.7947 l -9.00122,-5.02733 q -0.28456,-0.15893 -0.65021,0.086 -0.23432,0.15861 -0.34347,0.15754 -0.10915,-0.001 -0.31135,-0.11401 l -0.29205,-0.16311 q -0.23964,-0.13384 -0.2428,-0.1955 -0.003,-0.0617 0.10843,-0.24888 l 2.1787,-3.6544 q 0.12501,-0.20968 0.28976,-0.11765 0.53917,0.30113 0.63668,0.4055 0.0975,0.10436 0.0309,0.36666 -0.12875,0.46712 0.18577,0.64279 l 8.88889,4.96458 q 0.31452,0.17566 0.51642,0.18861 0.2094,0.0171 0.46605,-0.17889 0.19398,-0.14121 0.28062,-0.15278 0.0897,1.7e-4 0.26944,0.10057 z" />
    <path
       inkscape:connector-curvature="0"
       id="path4653"
       style="font-style:normal;font-variant:normal;font-weight:normal;font-stretch:condensed;font-size:medium;line-height:1.25;font-family:'Bernard MT Condensed';-inkscape-font-specification:'Bernard MT Condensed,  Condensed';font-variant-ligatures:normal;font-variant-caps:normal;font-variant-numeric:normal;font-feature-settings:normal;text-align:start;letter-spacing:0px;word-spacing:0px;writing-mode:lr-tb;text-anchor:start;fill:#000000;fill-opacity:1;stroke:none;stroke-width:0.27666765"
       d="m 182.79718,157.18106 5.09058,4.37043 q 0.066,0.0568 0.14834,0.10281 0.29954,0.1673 0.70696,-0.11424 0.26269,-0.17268 0.37502,-0.10994 0.0524,0.0292 0.1004,0.066 l 0.11982,0.0669 q 0.33698,0.18821 0.4015,0.26417 0.0675,0.0876 -0.0217,0.23741 l -1.1072,1.85715 q -0.0759,0.12731 -0.1642,0.10797 -0.0853,-0.008 -0.3848,-0.175 -0.35195,-0.19657 -0.4254,-0.25755 -0.0734,-0.061 -0.0723,-0.18013 -0.0158,-0.30831 -0.0924,-0.43095 -0.0691,-0.11847 -0.45737,-0.45509 l -8.56683,-7.38005 -0.52016,-0.45023 q -0.0734,-0.061 0.0114,-0.20326 l 0.89737,-1.5052 q 0.058,-0.0974 0.17899,-0.0999 0.1211,-0.002 0.67339,0.17646 l 11.11002,3.59981 q 0.41461,0.14173 0.76096,-0.0541 0.17899,-0.0999 0.24643,-0.11191 0.0702,-7.1e-4 0.22753,0.0872 0.0524,0.0292 0.1004,0.066 0.0779,0.0535 0.15282,0.0953 0.0524,0.0292 0.10177,0.0469 l 0.10484,0.0586 q 0.24713,0.13803 0.13998,0.31775 l -2.0269,3.3998 q -0.1027,0.17222 -0.41721,-0.003 -0.008,-0.005 -0.42541,-0.25755 -0.0884,-0.0693 -0.071,-0.24928 0.0392,-0.41733 -0.30529,-0.60972 -0.0823,-0.046 -0.20061,-0.0821 z" />
    <path
       inkscape:connector-curvature="0"
       id="path4656"
       style="font-style:normal;font-variant:normal;font-weight:normal;font-stretch:condensed;font-size:medium;line-height:1.25;font-family:'Bernard MT Condensed';-inkscape-font-specification:'Bernard MT Condensed,  Condensed';font-variant-ligatures:normal;font-variant-caps:normal;font-variant-numeric:normal;font-feature-settings:normal;text-align:start;letter-spacing:0px;word-spacing:0px;writing-mode:lr-tb;text-anchor:start;fill:#000000;fill-opacity:1;stroke:none;stroke-width:0.27666765"
       d="m 147.7741,188.60244 2.11462,6.35178 q 0.0273,0.0825 0.0741,0.16349 0.17012,0.29465 0.66034,0.24736 0.31158,-0.0228 0.37538,0.0877 0.0297,0.0515 0.0517,0.10763 l 0.068,0.11786 q 0.19138,0.33149 0.20768,0.43012 0.013,0.11034 -0.13923,0.19824 l -1.8875,1.08975 q -0.12938,0.0747 -0.19476,0.0142 -0.0687,-0.0487 -0.23888,-0.34334 -0.19989,-0.34623 -0.23143,-0.43606 -0.0316,-0.0899 0.03,-0.19411 0.14327,-0.27915 0.14036,-0.4248 0.001,-0.13828 -0.15825,-0.62562 l -3.54586,-10.7114 -0.21421,-0.65225 q -0.0316,-0.0899 0.11302,-0.17333 l 1.52974,-0.8832 q 0.099,-0.0571 0.20325,5.2e-4 0.1043,0.0576 0.48395,0.4867 l 7.63436,8.63573 q 0.28115,0.32877 0.67577,0.32683 0.20326,5.2e-4 0.26682,0.0228 0.0602,0.0339 0.14957,0.18865 0.0298,0.0515 0.0517,0.10763 0.039,0.0856 0.0815,0.1592 0.0297,0.0515 0.0631,0.0913 l 0.0595,0.10312 q 0.14035,0.24309 -0.0423,0.34854 l -3.45525,1.99489 q -0.17505,0.10106 -0.35367,-0.20832 -0.005,-0.008 -0.23143,-0.43605 -0.0401,-0.10457 0.0663,-0.25434 0.24556,-0.34803 0.0499,-0.68689 -0.0468,-0.0811 -0.12918,-0.17095 z" />
    <path
       inkscape:connector-curvature="0"
       id="path4659"
       style="font-style:normal;font-variant:normal;font-weight:normal;font-stretch:condensed;font-size:medium;line-height:1.25;font-family:'Bernard MT Condensed';-inkscape-font-specification:'Bernard MT Condensed,  Condensed';font-variant-ligatures:normal;font-variant-caps:normal;font-variant-numeric:normal;font-feature-settings:normal;text-align:start;letter-spacing:0px;word-spacing:0px;writing-mode:lr-tb;text-anchor:start;fill:#000000;fill-opacity:1;stroke:none;stroke-width:0.27666765"
       d="m 105.06872,199.58967 -1.42795,6.63116 q -0.0187,0.0861 -0.02,0.18036 -0.005,0.34306 0.43677,0.54266 0.277,0.13332 0.27517,0.26196 -7.9e-4,0.06 -0.0108,0.12018 l -0.002,0.13722 q -0.005,0.38594 -0.0417,0.48077 -0.0451,0.10351 -0.21939,0.10599 l -2.16196,0.0303 q -0.1482,0.002 -0.17311,-0.0834 -0.0339,-0.0766 -0.0289,-0.41976 0.006,-0.40309 0.0245,-0.49768 0.0188,-0.0946 0.12428,-0.15605 0.26392,-0.17524 0.33554,-0.3048 0.0715,-0.12106 0.18326,-0.62854 l 2.42522,-11.17261 0.14913,-0.6795 q 0.0188,-0.0946 0.18427,-0.0971 l 1.75223,-0.0246 q 0.1133,-0.002 0.1729,0.10046 0.0595,0.10207 0.16482,0.66653 l 2.11307,11.3577 q 0.0723,0.42774 0.40948,0.62025 0.1729,0.10047 0.21575,0.15132 0.034,0.0596 0.0314,0.23966 -8.7e-4,0.0601 -0.0107,0.12018 -0.0105,0.0945 -0.0116,0.18024 -8.3e-4,0.06 0.007,0.11136 l -0.002,0.12008 q -0.004,0.28302 -0.21325,0.28595 l -3.95776,0.0555 q -0.2005,0.003 -0.19495,-0.35765 3.3e-4,-0.009 0.0245,-0.49768 0.0191,-0.11172 0.18578,-0.19121 0.38611,-0.18551 0.39175,-0.58 0.001,-0.0943 -0.023,-0.21407 z" />
    <path
       inkscape:connector-curvature="0"
       id="path4661"
       style="font-style:normal;font-variant:normal;font-weight:normal;font-stretch:condensed;font-size:medium;line-height:1.25;font-family:'Bernard MT Condensed';-inkscape-font-specification:'Bernard MT Condensed,  Condensed';font-variant-ligatures:normal;font-variant-caps:normal;font-variant-numeric:normal;font-feature-settings:normal;text-align:start;letter-spacing:0px;word-spacing:0px;writing-mode:lr-tb;text-anchor:start;fill:#000000;fill-opacity:1;stroke:none;stroke-width:0.27666765"
       d="m 101.35832,207.36755 -0.006,0.45454 q -0.004,0.26588 -0.29147,0.26989 l -4.175698,0.0585 q -0.235375,0.003 -0.304262,-0.0557 -0.06887,-0.0591 -0.06461,-0.35925 0.0065,-0.45455 0.06037,-0.56678 0.0452,-0.11212 0.21117,-0.14016 0.541836,-0.10191 0.550141,-0.68511 l 0.146812,-10.30895 q 0.0046,-0.32591 -0.384923,-0.50911 -0.251097,-0.11653 -0.30206,-0.21014 -0.05067,-0.0938 -0.04766,-0.32518 l 0.0048,-0.33448 q 0.0039,-0.27445 0.0567,-0.30948 0.05282,-0.0351 0.270735,-0.0381 l 4.254156,-0.0596 q 0.24409,-0.003 0.24141,0.18527 -0.009,0.61751 -0.0543,0.75534 -0.0455,0.13782 -0.30817,0.21868 -0.47258,0.13524 -0.47771,0.49545 l -0.14499,10.1803 q -0.005,0.36022 0.0795,0.5391 0.0846,0.18745 0.37918,0.30338 0.21659,0.0913 0.26791,0.15916 0.042,0.0768 0.0395,0.28243 z" />
    <path
       inkscape:connector-curvature="0"
       id="path4664"
       style="font-style:normal;font-variant:normal;font-weight:normal;font-stretch:condensed;font-size:medium;line-height:1.25;font-family:'Bernard MT Condensed';-inkscape-font-specification:'Bernard MT Condensed,  Condensed';font-variant-ligatures:normal;font-variant-caps:normal;font-variant-numeric:normal;font-feature-settings:normal;text-align:start;letter-spacing:0px;word-spacing:0px;writing-mode:lr-tb;text-anchor:start;fill:#000000;fill-opacity:1;stroke:none;stroke-width:0.27666765"
       d="m 60.671093,188.36556 -4.587905,5.13375 q -0.05962,0.0665 -0.10872,0.14891 -0.178584,0.29955 0.09618,0.69257 0.168171,0.25368 0.101258,0.36598 -0.03117,0.0524 -0.07028,0.10051 l -0.07145,0.11977 q -0.200916,0.33698 -0.279994,0.40262 -0.091,0.0689 -0.240787,-0.0147 l -1.857146,-1.03725 q -0.127308,-0.0711 -0.105073,-0.15859 0.01023,-0.0841 0.188794,-0.38368 0.209823,-0.35196 0.273923,-0.42597 0.06411,-0.074 0.185206,-0.0762 0.313956,-0.0243 0.440836,-0.10317 0.122434,-0.0713 0.475674,-0.463 l 7.746466,-8.64017 0.472515,-0.52468 q 0.06411,-0.074 0.206372,0.005 l 1.505193,0.84068 q 0.09735,0.0544 0.09659,0.17329 -0.0012,0.11914 -0.198462,0.66775 l -3.974409,11.0364 q -0.15585,0.41207 0.03354,0.74742 0.09658,0.17328 0.10689,0.23934 -0.0013,0.0691 -0.09504,0.22641 -0.03126,0.0525 -0.07029,0.10051 -0.05692,0.078 -0.101574,0.15287 -0.03117,0.0524 -0.05025,0.10176 l -0.06253,0.1048 q -0.147332,0.24712 -0.327083,0.1467 l -3.399787,-1.89884 q -0.172231,-0.0962 0.01528,-0.41072 0.0049,-0.007 0.273929,-0.42596 0.073,-0.089 0.255456,-0.0769 0.42326,0.0268 0.628641,-0.31768 0.04909,-0.0824 0.08918,-0.19974 z" />
    <path
       inkscape:connector-curvature="0"
       id="path4666"
       style="font-style:normal;font-variant:normal;font-weight:normal;font-stretch:condensed;font-size:medium;line-height:1.25;font-family:'Bernard MT Condensed';-inkscape-font-specification:'Bernard MT Condensed,  Condensed';font-variant-ligatures:normal;font-variant-caps:normal;font-variant-numeric:normal;font-feature-settings:normal;text-align:start;letter-spacing:0px;word-spacing:0px;writing-mode:lr-tb;text-anchor:start;fill:#000000;fill-opacity:1;stroke:none;stroke-width:0.27666765"
       d="m 53.555771,193.38538 -0.236615,0.39689 q -0.138402,0.23214 -0.38552,0.0941 l -3.587009,-2.0034 q -0.202195,-0.11294 -0.230865,-0.19879 -0.02867,-0.0859 0.127572,-0.348 0.236629,-0.39689 0.339615,-0.46913 0.09545,-0.0765 0.251157,-0.0195 0.513405,0.17695 0.816999,-0.33227 l 5.366382,-9.00122 q 0.169644,-0.28456 -0.06912,-0.63753 -0.15468,-0.22611 -0.15046,-0.33361 0.0041,-0.10745 0.124694,-0.30966 l 0.174119,-0.29206 q 0.14287,-0.23964 0.205674,-0.24448 0.06279,-0.005 0.250011,0.0997 l 3.654409,2.04105 q 0.209672,0.1171 0.111459,0.28185 -0.321443,0.53916 -0.430296,0.63808 -0.108866,0.0989 -0.37371,0.0408 -0.471351,-0.11353 -0.658857,0.20098 l -5.299416,8.88889 q -0.187519,0.31452 -0.206352,0.51363 -0.02329,0.20659 0.168814,0.45359 0.138078,0.18696 0.147656,0.27175 -0.0027,0.0883 -0.109918,0.26801 z" />
    <path
       inkscape:connector-curvature="0"
       id="path4668"
       style="font-style:normal;font-variant:normal;font-weight:normal;font-stretch:condensed;font-size:medium;line-height:1.25;font-family:'Bernard MT Condensed';-inkscape-font-specification:'Bernard MT Condensed,  Condensed';font-variant-ligatures:normal;font-variant-caps:normal;font-variant-numeric:normal;font-feature-settings:normal;text-align:start;letter-spacing:0px;word-spacing:0px;writing-mode:lr-tb;text-anchor:start;fill:#000000;fill-opacity:1;stroke:none;stroke-width:0.27666765"
       d="m 49.062653,190.87589 -0.236624,0.39689 q -0.138401,0.23215 -0.38552,0.0941 l -3.587008,-2.0034 q -0.202191,-0.11292 -0.230866,-0.19879 -0.02867,-0.0859 0.127586,-0.34799 0.236615,-0.39689 0.339602,-0.46914 0.09545,-0.0765 0.25117,-0.0194 0.513397,0.17695 0.816986,-0.33227 l 5.366381,-9.00122 q 0.169658,-0.28456 -0.06911,-0.63753 -0.154685,-0.22612 -0.150465,-0.33361 0.0041,-0.10746 0.124702,-0.30967 l 0.174119,-0.29206 q 0.142867,-0.23962 0.205679,-0.24447 0.06279,-0.005 0.250006,0.0997 l 3.654401,2.04105 q 0.209685,0.11711 0.111463,0.28186 -0.321446,0.53918 -0.430296,0.63809 -0.108865,0.0989 -0.373715,0.0408 -0.471351,-0.11352 -0.658866,0.201 l -5.299411,8.88889 q -0.18751,0.31452 -0.206342,0.51362 -0.02331,0.20659 0.168813,0.45359 0.138073,0.18695 0.147652,0.27174 -0.0027,0.0883 -0.109922,0.26803 z" />
    <path
       inkscape:connector-curvature="0"
       id="path4671"
       style="font-style:normal;font-variant:normal;font-weight:normal;font-stretch:condensed;font-size:medium;line-height:1.25;font-family:'Bernard MT Condensed';-inkscape-font-specification:'Bernard MT Condensed,  Condensed';font-variant-ligatures:normal;font-variant-caps:normal;font-variant-numeric:normal;font-feature-settings:normal;text-align:start;letter-spacing:0px;word-spacing:0px;writing-mode:lr-tb;text-anchor:start;fill:#000000;fill-opacity:1;stroke:none;stroke-width:0.27666765"
       d="m 28.811524,159.46786 -6.518543,2.26074 q -0.08462,0.0292 -0.168316,0.0775 -0.304434,0.17577 -0.270182,0.65692 0.01432,0.30602 -0.09984,0.37193 -0.05326,0.0307 -0.111047,0.0537 l -0.121772,0.0703 q -0.342478,0.19773 -0.443197,0.21662 -0.112581,0.0159 -0.197661,-0.13144 l -1.054735,-1.82685 q -0.07231,-0.12524 -0.0089,-0.19129 0.0515,-0.069 0.355928,-0.24476 0.357703,-0.20652 0.449913,-0.24012 0.09224,-0.0336 0.196542,0.024 0.279802,0.13311 0.427982,0.12612 0.140597,-0.003 0.640641,-0.17343 l 10.992049,-3.79258 0.669292,-0.22927 q 0.09224,-0.0336 0.173054,0.10634 l 0.854855,1.48065 q 0.05529,0.0958 -0.0063,0.20006 -0.06157,0.10425 -0.508566,0.49006 l -8.996954,7.7579 q -0.342281,0.28595 -0.351436,0.67435 -0.0063,0.20006 -0.03067,0.26324 -0.03626,0.0602 -0.196103,0.15248 -0.05326,0.0308 -0.111047,0.0537 -0.08825,0.0406 -0.164325,0.0845 -0.05326,0.0307 -0.09444,0.0649 l -0.106555,0.0615 q -0.251148,0.145 -0.353218,-0.0318 l -1.930855,-3.34434 q -0.09782,-0.16943 0.22183,-0.35398 0.0078,-0.004 0.449913,-0.24013 0.107444,-0.0424 0.256748,0.058 0.34696,0.23186 0.697051,0.0297 0.08374,-0.0483 0.177515,-0.13193 z" />
    <path
       inkscape:connector-curvature="0"
       id="path4673"
       style="font-style:normal;font-variant:normal;font-weight:normal;font-stretch:condensed;font-size:medium;line-height:1.25;font-family:'Bernard MT Condensed';-inkscape-font-specification:'Bernard MT Condensed,  Condensed';font-variant-ligatures:normal;font-variant-caps:normal;font-variant-numeric:normal;font-feature-settings:normal;text-align:start;letter-spacing:0px;word-spacing:0px;writing-mode:lr-tb;text-anchor:start;fill:#000000;fill-opacity:1;stroke:none;stroke-width:0.27666765"
       d="m 20.197824,160.38456 -0.403368,0.23288 q -0.235932,0.13622 -0.376282,-0.10687 l -2.037175,-3.5285 q -0.114835,-0.1989 -0.0956,-0.28858 0.01921,-0.0897 0.285591,-0.24352 0.403369,-0.23288 0.527862,-0.24576 0.120185,-0.0203 0.223833,0.10649 0.34743,0.40837 0.864932,0.10959 l 9.148034,-5.28162 q 0.28921,-0.16697 0.265258,-0.59512 -0.01678,-0.27515 0.04142,-0.36769 0.05819,-0.0926 0.26365,-0.21122 l 0.296822,-0.17137 q 0.243535,-0.14061 0.299534,-0.11393 0.05595,0.0267 0.162248,0.21082 l 2.075455,3.59479 q 0.11908,0.20625 -0.04835,0.30292 -0.547969,0.31637 -0.690991,0.34987 -0.143022,0.0335 -0.339115,-0.14797 -0.343825,-0.33188 -0.663475,-0.14733 l -9.033875,5.21571 q -0.31965,0.18455 -0.436925,0.35052 -0.124887,0.17037 -0.08685,0.48232 0.02257,0.2325 -0.01276,0.31184 -0.04725,0.0763 -0.229906,0.18181 z" />
    <path
       inkscape:connector-curvature="0"
       id="path4675"
       style="font-style:normal;font-variant:normal;font-weight:normal;font-stretch:condensed;font-size:medium;line-height:1.25;font-family:'Bernard MT Condensed';-inkscape-font-specification:'Bernard MT Condensed,  Condensed';font-variant-ligatures:normal;font-variant-caps:normal;font-variant-numeric:normal;font-feature-settings:normal;text-align:start;letter-spacing:0px;word-spacing:0px;writing-mode:lr-tb;text-anchor:start;fill:#000000;fill-opacity:1;stroke:none;stroke-width:0.27666765"
       d="m 17.646034,155.96473 -0.403368,0.23288 q -0.235932,0.13622 -0.376282,-0.10687 l -2.03718,-3.5285 q -0.114832,-0.1989 -0.0956,-0.28858 0.01922,-0.0897 0.285602,-0.24351 0.403368,-0.23288 0.527842,-0.24579 0.120185,-0.0203 0.223834,0.1065 0.347429,0.40836 0.864931,0.10958 l 9.148034,-5.28162 q 0.289209,-0.16698 0.265255,-0.59513 -0.01678,-0.27514 0.04142,-0.36767 0.05821,-0.0926 0.26367,-0.21119 l 0.296822,-0.17137 q 0.243535,-0.1406 0.299514,-0.11396 0.05593,0.0267 0.162239,0.2108 l 2.075456,3.5948 q 0.119085,0.20626 -0.04834,0.30292 -0.547969,0.31637 -0.690991,0.34987 -0.143022,0.0335 -0.33912,-0.14797 -0.34382,-0.33188 -0.66347,-0.14733 l -9.033875,5.21571 q -0.31965,0.18455 -0.436925,0.35053 -0.124887,0.17037 -0.08685,0.4823 0.02258,0.23251 -0.01276,0.31184 -0.04725,0.0764 -0.229906,0.18181 z" />
    <path
       inkscape:connector-curvature="0"
       id="path4677"
       style="font-style:normal;font-variant:normal;font-weight:normal;font-stretch:condensed;font-size:medium;line-height:1.25;font-family:'Bernard MT Condensed';-inkscape-font-specification:'Bernard MT Condensed,  Condensed';font-variant-ligatures:normal;font-variant-caps:normal;font-variant-numeric:normal;font-feature-settings:normal;text-align:start;letter-spacing:0px;word-spacing:0px;writing-mode:lr-tb;text-anchor:start;fill:#000000;fill-opacity:1;stroke:none;stroke-width:0.27666765"
       d="m 15.094239,151.54489 -0.403369,0.23288 q -0.235931,0.13622 -0.376278,-0.10687 l -2.037182,-3.5285 q -0.114831,-0.19889 -0.0956,-0.28858 0.01922,-0.0897 0.285601,-0.2435 0.403369,-0.23289 0.527842,-0.24579 0.120185,-0.0203 0.223835,0.10649 0.347433,0.40837 0.864935,0.10959 l 9.148034,-5.28162 q 0.28921,-0.16697 0.265251,-0.59513 -0.01678,-0.27515 0.04142,-0.36768 0.05821,-0.0926 0.263671,-0.21118 l 0.296821,-0.17137 q 0.243535,-0.14061 0.299515,-0.11397 0.05593,0.0267 0.162239,0.21081 l 2.075457,3.59479 q 0.119082,0.20626 -0.04835,0.30292 -0.547969,0.31637 -0.690991,0.34987 -0.143022,0.0335 -0.339117,-0.14797 -0.343823,-0.33187 -0.663473,-0.14732 l -9.033875,5.21571 q -0.31965,0.18455 -0.436925,0.35052 -0.124887,0.17037 -0.08685,0.48231 0.02258,0.23251 -0.01276,0.31184 -0.04725,0.0764 -0.229906,0.18181 z" />
    <path
       inkscape:connector-curvature="0"
       id="path4680"
       style="font-style:normal;font-variant:normal;font-weight:normal;font-stretch:condensed;font-size:medium;line-height:1.25;font-family:'Bernard MT Condensed';-inkscape-font-specification:'Bernard MT Condensed,  Condensed';font-variant-ligatures:normal;font-variant-caps:normal;font-variant-numeric:normal;font-feature-settings:normal;text-align:start;letter-spacing:0px;word-spacing:0px;writing-mode:lr-tb;text-anchor:start;fill:#000000;fill-opacity:1;stroke:none;stroke-width:0.27666765"
       d="m 4.8870185,116.90269 -0.4620327,0.006 q -0.2702429,0.004 -0.2661912,-0.27926 l 0.058507,-4.10814 q 0.00329,-0.23155 0.065295,-0.30102 0.061962,-0.0695 0.3671167,-0.0738 0.462024,-0.006 0.5746168,0.0434 0.1127339,0.0413 0.1365367,0.20388 0.08832,0.5304 0.6811073,0.5221 l 10.4784809,-0.14682 q 0.331261,-0.005 0.528546,-0.39327 0.125582,-0.25043 0.222213,-0.30324 0.09664,-0.0528 0.331998,-0.0561 l 0.339986,-0.005 q 0.27896,-0.004 0.3131,0.0471 0.03408,0.051 0.03108,0.26538 l -0.05961,4.18534 q -0.0034,0.24014 -0.195201,0.24282 -0.627664,0.009 -0.766538,-0.0321 -0.138857,-0.0409 -0.213682,-0.29711 -0.124166,-0.4613 -0.490304,-0.45617 l -10.3477075,0.14498 q -0.3661381,0.005 -0.5504237,0.0935 -0.1930128,0.0885 -0.319203,0.38177 -0.098951,0.21575 -0.1694223,0.26819 -0.079125,0.0439 -0.2882912,0.0469 z" />
    <path
       inkscape:connector-curvature="0"
       id="path4682"
       style="font-style:normal;font-variant:normal;font-weight:normal;font-stretch:condensed;font-size:medium;line-height:1.25;font-family:'Bernard MT Condensed';-inkscape-font-specification:'Bernard MT Condensed,  Condensed';font-variant-ligatures:normal;font-variant-caps:normal;font-variant-numeric:normal;font-feature-settings:normal;text-align:start;letter-spacing:0px;word-spacing:0px;writing-mode:lr-tb;text-anchor:start;fill:#000000;fill-opacity:1;stroke:none;stroke-width:0.27666765"
       d="M 8.4406018,107.28343 6.968516,106.6095 q -1.047613,-0.49123 -1.2568372,-0.4883 -0.1830719,0.003 -0.2913454,0.26133 -0.099068,0.22433 -0.4739239,0.22958 -0.4184397,0.006 -0.5312749,-0.0269 -0.1127339,-0.0413 -0.1101608,-0.22141 l 0.028334,-1.98974 q 0.00306,-0.21441 0.2384324,-0.2177 l 0.6189378,-0.009 q 0.1743564,-0.002 0.3278506,0.23549 0.1535329,0.23793 0.2834389,0.29613 l 4.3817575,1.99655 6.377514,-2.27592 q 0.280427,-0.10683 0.359488,-0.15081 0.07924,-0.0526 0.177528,-0.22543 0.116256,-0.20742 0.221729,-0.26894 0.09672,-0.0614 0.366986,-0.0651 0.392288,-0.005 0.556949,0.0608 0.164774,0.0577 0.16151,0.26374 l -0.05166,3.62786 q -0.0039,0.27444 -0.248,0.27787 l -0.55792,0.008 q -0.261525,0.004 -0.397585,-0.23452 -0.161731,-0.27212 -0.36223,-0.26932 -0.252808,0.004 -0.568224,0.11943 l -2.225614,0.82864 2.19947,1.00674 q 0.441539,0.20818 0.642046,0.20537 0.165632,-0.002 0.370658,-0.32246 0.04455,-0.0692 0.106197,-0.11296 0.053,-0.0522 0.497637,-0.0584 0.383571,-0.005 0.452701,0.0365 0.06925,0.0333 0.06691,0.19629 l -0.02944,2.06695 q -0.0038,0.26587 -0.247875,0.26929 l -0.645098,0.009 q -0.148196,0.002 -0.301085,-0.27876 -0.118735,-0.22985 -0.282798,-0.33902 -0.163934,-0.11774 -0.648932,-0.3339 l -3.906083,-1.7374 -6.3685492,2.25865 q -0.341571,0.11626 -0.6164527,0.44595 -0.1242389,0.1561 -0.2549844,0.15796 l -0.5317774,0.007 q -0.2702429,0.004 -0.2655118,-0.33068 l 0.051179,-3.59355 q 0.00305,-0.21442 0.2558584,-0.21796 l 0.6015125,-0.008 q 0.2353664,-0.003 0.3277251,0.24407 0.100816,0.26442 0.2664468,0.2621 0.2179324,-0.003 0.5947437,-0.14553 z" />
    <path
       inkscape:connector-curvature="0"
       id="path4685"
       style="font-style:normal;font-variant:normal;font-weight:normal;font-stretch:condensed;font-size:medium;line-height:1.25;font-family:'Bernard MT Condensed';-inkscape-font-specification:'Bernard MT Condensed,  Condensed';font-variant-ligatures:normal;font-variant-caps:normal;font-variant-numeric:normal;font-feature-settings:normal;text-align:start;letter-spacing:0px;word-spacing:0px;writing-mode:lr-tb;text-anchor:start;fill:#000000;fill-opacity:1;stroke:none;stroke-width:0.27666765"
       d="m 20.024308,61.65712 -0.911423,-1.317591 q -0.64275,-0.947876 -0.822425,-1.048283 -0.157281,-0.08782 -0.381064,0.08664 -0.198454,0.148688 -0.520455,-0.03115 -0.359446,-0.20076 -0.438948,-0.285081 -0.07505,-0.0918 0.01873,-0.249075 l 1.035777,-1.737342 q 0.111608,-0.18721 0.3138,-0.07428 l 0.53169,0.296953 q 0.149787,0.08364 0.159579,0.3686 0.0098,0.284965 0.09086,0.40012 l 2.717712,3.913573 6.590109,1.135264 q 0.29321,0.04397 0.38293,0.04417 0.09417,-0.0073 0.265842,-0.111049 0.204505,-0.125346 0.325622,-0.127585 0.113619,-0.0064 0.345768,0.123247 0.336983,0.188212 0.443548,0.327588 0.11102,0.131892 0.0039,0.311615 l -1.888498,3.167646 q -0.142864,0.239633 -0.352547,0.12253 l -0.479269,-0.267677 q -0.224655,-0.125475 -0.219442,-0.402085 5.79e-4,-0.319098 -0.171647,-0.415301 -0.21717,-0.12129 -0.544793,-0.17451 l -2.317294,-0.365911 1.361885,1.968455 q 0.270278,0.400534 0.442538,0.496717 0.142294,0.07946 0.479702,-0.101411 0.07319,-0.03902 0.147905,-0.04716 0.07169,-0.01983 0.453638,0.193464 0.329489,0.184032 0.367076,0.254934 0.0423,0.06327 -0.04277,0.205697 l -1.075953,1.804735 q -0.138408,0.232149 -0.348087,0.115035 l -0.554153,-0.309501 q -0.127307,-0.0711 -0.114736,-0.393528 0.0157,-0.260744 -0.06854,-0.437561 -0.07975,-0.184324 -0.383037,-0.613239 l -2.444243,-3.451394 -6.573696,-1.146054 q -0.350087,-0.06577 -0.751883,0.08914 -0.185205,0.07624 -0.29753,0.0135 l -0.456805,-0.255129 q -0.23214,-0.129658 -0.05803,-0.421708 l 1.87065,-3.137699 q 0.111608,-0.187211 0.328778,-0.06592 l 0.516711,0.28859 q 0.202191,0.112926 0.155124,0.376083 -0.04854,0.282332 0.09376,0.361792 0.187222,0.104558 0.580658,0.164589 z" />
    <path
       inkscape:connector-curvature="0"
       id="path4688"
       style="font-style:normal;font-variant:normal;font-weight:normal;font-stretch:condensed;font-size:medium;line-height:1.25;font-family:'Bernard MT Condensed';-inkscape-font-specification:'Bernard MT Condensed,  Condensed';font-variant-ligatures:normal;font-variant-caps:normal;font-variant-numeric:normal;font-feature-settings:normal;text-align:start;letter-spacing:0px;word-spacing:0px;writing-mode:lr-tb;text-anchor:start;fill:#000000;fill-opacity:1;stroke:none;stroke-width:0.27666765"
       d="M 52.963747,26.943381 52.857202,25.33518 q -0.06559,-1.150579 -0.167658,-1.327373 -0.08931,-0.154694 -0.368668,-0.11127 -0.244663,0.03321 -0.427539,-0.283541 -0.204143,-0.353586 -0.228949,-0.46695 -0.01727,-0.117713 0.14259,-0.210008 l 1.765678,-1.019415 q 0.190266,-0.10985 0.305097,0.08904 l 0.301962,0.523013 q 0.08506,0.147328 -0.05149,0.402958 -0.136541,0.255625 -0.126024,0.39688 l 0.325452,4.78196 5.036904,4.242253 q 0.227417,0.182998 0.303747,0.227326 0.08392,0.03994 0.282938,0.03308 0.237951,-0.0097 0.342256,0.04794 0.100041,0.05028 0.231886,0.278639 0.191385,0.331487 0.21131,0.506599 0.02755,0.170711 -0.155125,0.276176 l -3.219311,1.85867 q -0.243543,0.14061 -0.362627,-0.06565 l -0.272191,-0.471449 q -0.127589,-0.220992 0.01746,-0.461884 0.162737,-0.280572 0.06492,-0.449999 -0.123337,-0.213626 -0.375379,-0.421695 l -1.788053,-1.462418 0.159362,2.402743 q 0.02664,0.485536 0.124455,0.654962 0.08081,0.139962 0.460223,0.14681 0.08215,0.0017 0.14997,0.03128 0.07115,0.01784 0.28806,0.393534 0.187131,0.324121 0.183137,0.405002 0.0035,0.07653 -0.141025,0.159998 l -1.834172,1.05896 q -0.235932,0.136215 -0.355015,-0.07004 l -0.314721,-0.545112 q -0.0723,-0.125229 0.102301,-0.402829 0.14594,-0.221765 0.164077,-0.418852 0.02574,-0.201476 -0.01455,-0.728239 l -0.327468,-4.240591 -5.017418,-4.243682 q -0.264809,-0.230164 -0.685853,-0.291552 -0.196538,-0.02404 -0.260333,-0.13453 l -0.259432,-0.44935 q -0.131842,-0.228358 0.164979,-0.399728 l 3.18887,-1.841095 q 0.190266,-0.10985 0.313603,0.103775 l 0.293456,0.508282 q 0.114831,0.198892 -0.05909,0.407348 -0.184896,0.224611 -0.104089,0.364573 0.106325,0.184159 0.410975,0.430609 z" />
    <path
       inkscape:connector-curvature="0"
       id="path4690"
       style="font-style:normal;font-variant:normal;font-weight:normal;font-stretch:condensed;font-size:medium;line-height:1.25;font-family:'Bernard MT Condensed';-inkscape-font-specification:'Bernard MT Condensed,  Condensed';font-variant-ligatures:normal;font-variant-caps:normal;font-variant-numeric:normal;font-feature-settings:normal;text-align:start;letter-spacing:0px;word-spacing:0px;writing-mode:lr-tb;text-anchor:start;fill:#000000;fill-opacity:1;stroke:none;stroke-width:0.27666765"
       d="m 54.827924,22.016931 -0.225409,-0.390419 q -0.131842,-0.228359 0.119314,-0.373364 l 3.645516,-2.10474 q 0.205482,-0.118635 0.296143,-0.102226 0.09065,0.01641 0.239507,0.27424 0.225408,0.390418 0.235058,0.512531 0.01727,0.117713 -0.114606,0.223317 -0.425082,0.353456 -0.135876,0.854375 l 5.112091,8.854402 q 0.161613,0.279922 0.597657,0.244253 0.280257,-0.0243 0.372697,0.03037 0.09242,0.05467 0.207253,0.253573 l 0.165867,0.28729 q 0.136095,0.235723 0.107468,0.29154 -0.02863,0.05581 -0.218921,0.165677 l -3.714011,2.144285 q -0.213094,0.12303 -0.306659,-0.03903 -0.306215,-0.53038 -0.336245,-0.670193 -0.03003,-0.139813 0.160047,-0.33795 0.347187,-0.347776 0.168561,-0.657164 l -5.048294,-8.743903 q -0.178626,-0.309388 -0.344062,-0.420132 -0.169689,-0.118111 -0.487974,-0.07185 -0.237051,0.02882 -0.316738,-0.0037 -0.07629,-0.04434 -0.178367,-0.22114 z" />
  </g>
</svg>
