<svg xmlns="http://www.w3.org/2000/svg" width="678.755" height="678.764" viewBox="0 0 179.587 179.59">
  <g>
    <path d="M89.793.265c-.167 0-.333.002-.5.003v8.275c.167 0 .333-.003.5-.003.167 0 .334.002.5.003V.268c-.166-.001-.333-.003-.5-.003z" style="line-height:normal;font-variant-ligatures:normal;font-variant-position:normal;font-variant-caps:normal;font-variant-numeric:normal;font-variant-alternates:normal;font-feature-settings:normal;text-indent:0;text-align:start;text-decoration-line:none;text-decoration-style:solid;text-decoration-color:#000;text-transform:none;text-orientation:mixed;shape-padding:0;isolation:auto;mix-blend-mode:normal" color="#000" font-family="sans-serif" white-space="normal" overflow="visible"/>
    <path d="M80.932.7c-.332.033-.664.068-.995.104l.865 8.232c.332-.037.663-.073.995-.106zM98.655.7l-.865 8.23c.332.033.663.07.995.106L99.65.804A89.619 89.619 0 0 0 98.655.7zM107.921 2.106l-1.719 8.087c.328.067.652.141.978.212l1.72-8.091c-.326-.071-.652-.14-.979-.208zM71.665 2.107c-.326.067-.652.136-.977.207l1.72 8.091c.325-.07.65-.145.976-.212zM62.6 4.481a88.75 88.75 0 0 0-.952.31l2.552 7.856c.317-.105.634-.208.952-.309zM116.988 4.481l-2.553 7.857c.318.101.635.204.952.309l2.552-7.856a88.725 88.725 0 0 0-.95-.31zM125.755 7.796l-3.357 7.54c.305.134.612.265.915.402l3.355-7.534a89.197 89.197 0 0 0-.913-.408zM53.833 7.797c-.305.134-.61.27-.914.407l3.355 7.534c.303-.137.61-.268.915-.402z" style="line-height:normal;font-variant-ligatures:normal;font-variant-position:normal;font-variant-caps:normal;font-variant-numeric:normal;font-variant-alternates:normal;font-feature-settings:normal;text-indent:0;text-align:start;text-decoration-line:none;text-decoration-style:solid;text-decoration-color:#000;text-transform:none;text-orientation:mixed;shape-padding:0;isolation:auto;mix-blend-mode:normal" color="#000" font-family="sans-serif" white-space="normal" overflow="visible" fill="#a0a0a0"/>
    <path d="M45.465 12.017c-.29.166-.576.336-.863.505l4.118 7.132c.287-.169.574-.338.864-.503zM134.122 12.017l-4.12 7.134c.29.165.578.334.865.503l4.119-7.132c-.288-.169-.575-.339-.864-.505z" style="line-height:normal;font-variant-ligatures:normal;font-variant-position:normal;font-variant-caps:normal;font-variant-numeric:normal;font-variant-alternates:normal;font-feature-settings:normal;text-indent:0;text-align:start;text-decoration-line:none;text-decoration-style:solid;text-decoration-color:#000;text-transform:none;text-orientation:mixed;shape-padding:0;isolation:auto;mix-blend-mode:normal" color="#000" font-family="sans-serif" white-space="normal" overflow="visible"/>
    <path d="M142 17.088l-4.836 6.657c.27.194.54.391.808.589l4.836-6.657a89.876 89.876 0 0 0-.808-.59zM37.587 17.088c-.27.195-.54.392-.808.59l4.836 6.656c.268-.198.537-.395.808-.59zM30.28 22.951c-.25.222-.5.442-.747.666l5.503 6.111c.246-.224.497-.444.746-.666zM149.307 22.951l-5.502 6.111c.249.222.5.442.746.667l5.503-6.112c-.247-.224-.498-.444-.747-.666zM155.972 29.535l-6.112 5.503c.225.247.445.497.667.746l6.111-5.502c-.222-.25-.441-.5-.666-.747zM23.615 29.536c-.224.246-.444.497-.665.746l6.11 5.502c.222-.25.442-.5.666-.746zM161.91 36.78l-6.656 4.837c.198.268.395.537.59.808l6.656-4.836c-.195-.27-.392-.54-.59-.808zM17.677 36.781c-.198.269-.395.538-.59.808l6.656 4.836c.194-.271.391-.54.589-.808z" style="line-height:normal;font-variant-ligatures:normal;font-variant-position:normal;font-variant-caps:normal;font-variant-numeric:normal;font-variant-alternates:normal;font-feature-settings:normal;text-indent:0;text-align:start;text-decoration-line:none;text-decoration-style:solid;text-decoration-color:#000;text-transform:none;text-orientation:mixed;shape-padding:0;isolation:auto;mix-blend-mode:normal" color="#000" font-family="sans-serif" white-space="normal" overflow="visible" fill="#a0a0a0"/>
    <path d="M167.067 44.604l-7.133 4.118c.169.287.338.575.503.865l7.134-4.119c-.165-.29-.335-.576-.504-.864zM12.52 44.605c-.168.287-.338.574-.504.863l7.133 4.118c.165-.29.334-.577.503-.864z" style="line-height:normal;font-variant-ligatures:normal;font-variant-position:normal;font-variant-caps:normal;font-variant-numeric:normal;font-variant-alternates:normal;font-feature-settings:normal;text-indent:0;text-align:start;text-decoration-line:none;text-decoration-style:solid;text-decoration-color:#000;text-transform:none;text-orientation:mixed;shape-padding:0;isolation:auto;mix-blend-mode:normal" color="#000" font-family="sans-serif" white-space="normal" overflow="visible"/>
    <path d="M171.383 52.921l-7.534 3.355c.138.303.269.61.402.916l7.54-3.357c-.134-.305-.27-.61-.408-.914zM8.204 52.922a89.13 89.13 0 0 0-.408.914l7.538 3.355c.134-.305.265-.612.402-.915zM174.797 61.65l-7.856 2.553c.104.316.207.633.308.951l7.858-2.553a88.763 88.763 0 0 0-.31-.951zM4.79 61.65a88.79 88.79 0 0 0-.309.951l7.855 2.553c.101-.318.204-.635.309-.952zM2.313 70.69c-.07.325-.14.651-.207.978l8.085 1.718c.067-.327.141-.651.212-.977zM177.274 70.69l-8.092 1.72c.071.325.146.65.213.976l8.086-1.718a87.898 87.898 0 0 0-.207-.979zM.804 79.94c-.036.33-.071.662-.104.994l8.228.865c.032-.333.07-.663.106-.995zM178.783 79.94l-8.231.864c.036.332.073.663.105.995l8.23-.865a88.66 88.66 0 0 0-.104-.995z" style="line-height:normal;font-variant-ligatures:normal;font-variant-position:normal;font-variant-caps:normal;font-variant-numeric:normal;font-variant-alternates:normal;font-feature-settings:normal;text-indent:0;text-align:start;text-decoration-line:none;text-decoration-style:solid;text-decoration-color:#000;text-transform:none;text-orientation:mixed;shape-padding:0;isolation:auto;mix-blend-mode:normal" color="#000" font-family="sans-serif" white-space="normal" overflow="visible" fill="#a0a0a0"/>
    <path d="M.268 89.295c-.001.167-.003.333-.003.5 0 .167.002.334.003.5H8.54c0-.166-.003-.333-.003-.5 0-.167.002-.333.003-.5zM171.044 89.295c.001.167.003.333.003.5 0 .167-.002.334-.003.5h8.276c0-.166.003-.333.003-.5 0-.167-.002-.333-.003-.5z" style="line-height:normal;font-variant-ligatures:normal;font-variant-position:normal;font-variant-caps:normal;font-variant-numeric:normal;font-variant-alternates:normal;font-feature-settings:normal;text-indent:0;text-align:start;text-decoration-line:none;text-decoration-style:solid;text-decoration-color:#000;text-transform:none;text-orientation:mixed;shape-padding:0;isolation:auto;mix-blend-mode:normal" color="#000" font-family="sans-serif" white-space="normal" overflow="visible"/>
    <path d="M8.928 97.792L.7 98.656c.032.332.068.664.104.995l8.23-.865c-.037-.33-.073-.662-.106-.994zM170.657 97.792c-.032.332-.069.663-.105.994l8.231.865c.037-.331.072-.662.104-.994zM10.19 106.204l-8.084 1.718c.067.327.136.653.207.979l8.09-1.72c-.07-.325-.145-.65-.212-.977zM169.395 106.205c-.067.326-.142.65-.213.976l8.092 1.72c.071-.325.14-.651.207-.978zM12.336 114.437l-7.855 2.552c.101.318.205.635.31.951l7.853-2.552a80.722 80.722 0 0 1-.308-.951zM167.25 114.437c-.101.318-.204.635-.309.95l7.856 2.554c.105-.317.208-.634.31-.952zM15.334 122.4l-7.538 3.355c.134.306.27.61.408.914l7.532-3.353c-.137-.304-.268-.611-.402-.917zM164.252 122.4c-.134.305-.265.612-.402.915l7.534 3.354c.137-.303.273-.608.407-.913z" style="line-height:normal;font-variant-ligatures:normal;font-variant-position:normal;font-variant-caps:normal;font-variant-numeric:normal;font-variant-alternates:normal;font-feature-settings:normal;text-indent:0;text-align:start;text-decoration-line:none;text-decoration-style:solid;text-decoration-color:#000;text-transform:none;text-orientation:mixed;shape-padding:0;isolation:auto;mix-blend-mode:normal" color="#000" font-family="sans-serif" white-space="normal" overflow="visible" fill="#a0a0a0"/>
    <path d="M19.149 130.004l-7.133 4.118c.166.29.335.577.504.865l7.132-4.118c-.17-.288-.338-.575-.503-.865zM160.437 130.005c-.165.29-.334.577-.502.864l7.132 4.118c.168-.288.339-.574.504-.864z" style="line-height:normal;font-variant-ligatures:normal;font-variant-position:normal;font-variant-caps:normal;font-variant-numeric:normal;font-variant-alternates:normal;font-feature-settings:normal;text-indent:0;text-align:start;text-decoration-line:none;text-decoration-style:solid;text-decoration-color:#000;text-transform:none;text-orientation:mixed;shape-padding:0;isolation:auto;mix-blend-mode:normal" color="#000" font-family="sans-serif" white-space="normal" overflow="visible"/>
    <path d="M155.844 137.165c-.195.271-.392.54-.59.809l6.657 4.836.59-.808zM23.742 137.166l-6.655 4.835c.195.271.392.54.59.809l6.655-4.836a81.304 81.304 0 0 1-.59-.808zM29.06 143.807l-6.11 5.502c.221.249.441.5.666.747l6.11-5.503c-.224-.246-.444-.497-.666-.746zM150.526 143.807c-.221.249-.441.5-.666.746l6.112 5.503c.224-.247.444-.498.665-.747zM35.036 149.862l-5.503 6.111c.247.225.498.445.747.667l5.502-6.112c-.249-.221-.5-.441-.746-.666zM144.55 149.862c-.246.225-.496.445-.745.666l5.502 6.112c.249-.222.5-.442.746-.666zM41.615 155.256l-4.836 6.656c.269.198.538.395.808.59l4.836-6.656c-.27-.195-.54-.392-.808-.59zM137.971 155.257c-.268.197-.537.394-.807.588l4.836 6.657c.27-.194.539-.392.807-.59z" style="line-height:normal;font-variant-ligatures:normal;font-variant-position:normal;font-variant-caps:normal;font-variant-numeric:normal;font-variant-alternates:normal;font-feature-settings:normal;text-indent:0;text-align:start;text-decoration-line:none;text-decoration-style:solid;text-decoration-color:#000;text-transform:none;text-orientation:mixed;shape-padding:0;isolation:auto;mix-blend-mode:normal" color="#000" font-family="sans-serif" white-space="normal" overflow="visible" fill="#a0a0a0"/>
    <path d="M130.867 159.937c-.288.168-.575.337-.865.502l4.119 7.134c.29-.165.576-.335.864-.504zM48.72 159.937l-4.118 7.132c.288.169.575.338.864.504l4.119-7.134c-.29-.165-.577-.333-.865-.502z" style="line-height:normal;font-variant-ligatures:normal;font-variant-position:normal;font-variant-caps:normal;font-variant-numeric:normal;font-variant-alternates:normal;font-feature-settings:normal;text-indent:0;text-align:start;text-decoration-line:none;text-decoration-style:solid;text-decoration-color:#000;text-transform:none;text-orientation:mixed;shape-padding:0;isolation:auto;mix-blend-mode:normal" color="#000" font-family="sans-serif" white-space="normal" overflow="visible"/>
    <path d="M56.274 163.852l-3.354 7.534c.303.137.608.273.913.407l3.357-7.539c-.305-.134-.612-.265-.916-.402zM123.313 163.852c-.304.137-.61.268-.916.402l3.357 7.54c.305-.135.61-.27.913-.408zM64.2 166.943l-2.552 7.856c.316.105.633.208.951.31l2.553-7.858c-.318-.1-.635-.203-.951-.308zM115.386 166.943a80.74 80.74 0 0 1-.952.308l2.554 7.858c.317-.102.634-.205.95-.31zM72.407 169.185l-1.72 8.091c.326.071.653.14.98.207l1.718-8.086c-.327-.067-.652-.142-.978-.212zM107.179 169.185c-.326.07-.65.145-.977.212l1.719 8.086c.326-.067.653-.136.978-.206zM80.803 170.554l-.866 8.232c.331.036.663.07.995.103l.866-8.23c-.333-.032-.664-.07-.995-.105zM98.784 170.554c-.331.036-.662.073-.995.105l.865 8.23c.333-.032.664-.067.996-.103z" style="line-height:normal;font-variant-ligatures:normal;font-variant-position:normal;font-variant-caps:normal;font-variant-numeric:normal;font-variant-alternates:normal;font-feature-settings:normal;text-indent:0;text-align:start;text-decoration-line:none;text-decoration-style:solid;text-decoration-color:#000;text-transform:none;text-orientation:mixed;shape-padding:0;isolation:auto;mix-blend-mode:normal" color="#000" font-family="sans-serif" white-space="normal" overflow="visible" fill="#a0a0a0"/>
    <path d="M89.293 171.047v8.275c.167 0 .333.003.5.003.167 0 .334-.002.5-.003v-8.275c-.166 0-.333.003-.5.003-.167 0-.333-.002-.5-.003z" style="line-height:normal;font-variant-ligatures:normal;font-variant-position:normal;font-variant-caps:normal;font-variant-numeric:normal;font-variant-alternates:normal;font-feature-settings:normal;text-indent:0;text-align:start;text-decoration-line:none;text-decoration-style:solid;text-decoration-color:#000;text-transform:none;text-orientation:mixed;shape-padding:0;isolation:auto;mix-blend-mode:normal" color="#000" font-family="sans-serif" white-space="normal" overflow="visible"/>
    <g>
      <path  d="M82.451 14.168h2.39V26.33h-1.207V15.358h-1.91zM90.67 17.98h-1.166q.05-1.803 1.199-2.96 1.158-1.158 2.853-1.158 1.678 0 2.711 1.083 1.042 1.083 1.042 2.555 0 1.033-.496 1.943-.496.9-1.926 2.447l-3.026 3.266h5.614v1.174h-8.26l4.646-5.019q1.414-1.513 1.836-2.24.43-.736.43-1.547 0-1.025-.769-1.76-.76-.745-1.869-.745-1.165 0-1.943.777-.769.778-.876 2.183z"/>
    </g>
    <path d="M160.033 86.837h-1.24q.339-1.504 1.298-2.315.96-.81 2.266-.81.95 0 1.769.438.827.43 1.273 1.166.455.736.455 1.538 0 1.57-1.563 2.489.877.355 1.439 1.041.794.968.794 2.167 0 1.033-.546 1.976-.546.934-1.488 1.447-.943.512-2.109.512-1.57 0-2.62-.9-1.05-.91-1.373-2.663h1.19q.315 1.182.902 1.711.752.67 1.918.67 1.323 0 2.125-.794.802-.793.802-1.86 0-.711-.405-1.331-.397-.62-1.075-.935-.67-.314-2.084-.388V88.88q.835 0 1.522-.29.686-.297.992-.752.314-.455.314-.992 0-.794-.637-1.373-.628-.579-1.595-.579-.786 0-1.356.447-.57.438-.968 1.496z" style="stroke-width:0.26458332" aria-label="3" font-size="16.933" font-family="Century Gothic" letter-spacing="0" word-spacing="0" stroke-width=".265"/>
    <path d="M91.088 154.259l1 .653-3.282 4.977q.661-.223 1.24-.223 1.447 0 2.456 1.05 1.009 1.042 1.009 2.571 0 1.05-.488 1.902-.488.844-1.39 1.348-.892.496-1.926.496-1 0-1.86-.48-.852-.487-1.34-1.364-.487-.876-.487-1.877 0-.744.297-1.562.306-.827 1.083-1.985zm-1.331 6.474q-1.059 0-1.81.752-.745.744-.745 1.81 0 1.06.744 1.811.752.745 1.81.745 1.06 0 1.803-.745.753-.752.753-1.81 0-1.067-.753-1.811-.744-.752-1.802-.752z" style="stroke-width:0.26458332" aria-label="6" font-size="16.933" font-family="Century Gothic" letter-spacing="0" word-spacing="0" stroke-width=".265"/>
    <path d="M16.1 96.486l-1.001-.645 3.282-4.977q-.661.215-1.24.215-1.447 0-2.456-1.042-1.009-1.05-1.009-2.58 0-1.05.488-1.893t1.381-1.348q.901-.504 1.927-.504 1.008 0 1.86.488.86.488 1.348 1.364.487.877.487 1.869 0 .752-.305 1.579-.298.818-1.075 1.976zm1.322-6.474q1.067 0 1.81-.744.753-.752.753-1.81 0-1.059-.752-1.803-.744-.752-1.811-.752-1.058 0-1.81.752-.745.744-.745 1.803 0 1.058.744 1.81.753.744 1.811.744z" style="stroke-width:0.26458332" aria-label="9" font-size="16.933" font-family="Century Gothic" letter-spacing="0" word-spacing="0" stroke-width=".265"/>
    <g>
      <path d="M47.353 23.805h2.39v12.163h-1.208V24.996h-1.91zM56.746 23.805h2.39v12.163h-1.208V24.996h-1.91z"/>
    </g>
    <path d="M149.884 51.698h-1.166q.05-1.802 1.2-2.96 1.157-1.157 2.852-1.157 1.678 0 2.712 1.083 1.042 1.083 1.042 2.555 0 1.033-.497 1.943-.496.901-1.926 2.447l-3.026 3.266h5.614v1.174h-8.26l4.647-5.019q1.414-1.513 1.835-2.24.43-.736.43-1.546 0-1.026-.769-1.762-.76-.744-1.868-.744-1.166 0-1.943.778-.77.777-.877 2.182z" style="stroke-width:0.26458332" aria-label="2" font-size="16.933" font-family="Century Gothic" letter-spacing="0" word-spacing="0" stroke-width=".265"/>
    <path d="M128.349 145.327v1.158h-4.333l-.603 3.315q.793-.231 1.43-.231 1.662 0 2.737 1.116 1.083 1.108 1.083 2.844 0 1.2-.554 2.2-.554 1-1.505 1.538-.942.529-2.183.529-1.48 0-2.497-.902-1.017-.909-1.215-2.348h1.248q.141.703.472 1.141.339.439.893.711.562.265 1.174.265 1.199 0 2.059-.91.86-.91.86-2.273 0-1.232-.778-2.001-.777-.77-2.075-.77-1.075 0-2.605.654l1.125-6.036z" style="stroke-width:0.26458332" aria-label="5" font-size="16.933" font-family="Century Gothic" letter-spacing="0" word-spacing="0" stroke-width=".265"/>
    <path d="M28.92 125.894q1.232.612 1.76 1.397.538.786.538 1.786 0 1.406-.918 2.48-1.124 1.315-3.216 1.315-2.017 0-3.06-1.15-1.04-1.157-1.04-2.546 0-1.017.545-1.827.546-.819 1.819-1.455-.893-.463-1.34-1.15-.446-.686-.446-1.471 0-.794.471-1.546.48-.761 1.315-1.191.843-.438 1.819-.438.95 0 1.761.438.81.438 1.265 1.19.463.753.463 1.58 0 .827-.438 1.472-.43.644-1.298 1.116zm-1.811-4.614q-1 0-1.662.595-.653.587-.653 1.406 0 .81.703 1.472.71.653 1.653.653.604 0 1.141-.298.538-.297.835-.81.306-.52.306-1.042 0-.736-.595-1.356-.595-.62-1.728-.62zm.058 5.226q-1.257 0-2.109.818-.851.81-.851 1.894 0 .67.364 1.265.363.595 1.017.917.653.323 1.513.323 1.33 0 2.116-.786.786-.785.786-1.835 0-1.017-.835-1.803-.827-.793-2.001-.793z" style="stroke-width:0.26458332" aria-label="8" font-size="16.933" font-family="Century Gothic" letter-spacing="0" word-spacing="0" stroke-width=".265"/>
    <g>
      <path d="M22.192 49.475h2.39v12.163h-1.208V50.666h-1.91zM28.989 55.56q0-2.405.512-3.72.521-1.315 1.464-1.993.942-.678 2.108-.678 1.182 0 2.142.687.959.678 1.513 2.042.562 1.364.562 3.663 0 2.29-.554 3.646-.546 1.356-1.513 2.05-.968.687-2.15.687-1.166 0-2.1-.67-.934-.67-1.464-1.993-.52-1.33-.52-3.72zm1.149.026q0 2.058.364 3.117.372 1.05 1.091 1.595.72.546 1.521.546.81 0 1.513-.53.703-.537 1.067-1.603.455-1.298.455-3.125 0-1.836-.405-3.002-.405-1.174-1.125-1.711-.71-.546-1.505-.546-.81 0-1.521.546-.711.537-1.083 1.595-.372 1.05-.372 3.118z"/>
    </g>
    <path d="M125.185 21.938h2.39V34.1h-1.208V23.128h-1.91z" style="stroke-width:0.26458332" aria-label="1" font-size="16.933" font-family="Century Gothic" letter-spacing="0" word-spacing="0" stroke-width=".265"/>
    <path d="M153.438 119.252h.248v8.475h1.472v1.166h-1.472v2.828h-1.215v-2.828h-5.813zm-.967 8.475v-5.068l-3.58 5.068z" style="stroke-width:0.26458332" aria-label="4" font-size="16.933" font-family="Century Gothic" letter-spacing="0" word-spacing="0" stroke-width=".265"/>
    <path d="M50.373 146.426h7.715l-6.507 12.469-1-.513 5.622-10.807h-5.83z" style="stroke-width:0.26458332" aria-label="7" font-size="16.933" font-family="Century Gothic" letter-spacing="0" word-spacing="0" stroke-width=".265"/>
  </g>
</svg>
