<?xml version="1.0" encoding="UTF-8" standalone="no"?>
<svg
   xmlns:dc="http://purl.org/dc/elements/1.1/"
   xmlns:cc="http://creativecommons.org/ns#"
   xmlns:rdf="http://www.w3.org/1999/02/22-rdf-syntax-ns#"
   xmlns:svg="http://www.w3.org/2000/svg"
   xmlns="http://www.w3.org/2000/svg"
   id="svg8"
   version="1.1"
   viewBox="0 0 156.12122 156.12123"
   height="156.12123mm"
   width="156.12122mm">
  <defs
     id="defs2" />
  <metadata
     id="metadata5">
    <rdf:RDF>
      <cc:Work
         rdf:about="">
        <dc:format>image/svg+xml</dc:format>
        <dc:type
           rdf:resource="http://purl.org/dc/dcmitype/StillImage" />
        <dc:title></dc:title>
      </cc:Work>
    </rdf:RDF>
  </metadata>
  <g
     transform="translate(-4.1181684,-4.1569254)"
     id="layer1">
    <path
       id="path817"
       d="m 35.956019,4.1569254 3.199286,5.5412639 C 39.858038,9.5729594 40.568524,9.4702164 41.284375,9.386063 L 38.265437,4.1569254 Z m 10.920261,0 2.215886,4.9764394 h 1.096057 L 47.972338,4.1569254 Z m 9.412865,0 1.616953,4.9764394 h 1.052134 L 57.341276,4.1569254 Z m 8.786026,0 1.057815,4.9764394 h 1.022678 L 66.097847,4.1569254 Z m 8.395354,0 0.522964,4.9764394 h 1.007174 L 74.477698,4.1569254 Z m 7.208345,0 V 17.13546 h 2.999817 V 4.1569254 Z m 9.200988,0 -0.522967,4.9764394 h 1.005626 l 0.522964,-4.9764394 z m 8.379849,0 -1.057815,4.9764394 h 1.022676 l 1.057817,-4.9764394 z m 8.757093,0 -1.61696,4.9764394 h 1.05162 l 1.61695,-4.9764394 z m 9.36893,0 -2.21588,4.9764394 h 1.09605 l 2.21589,-4.9764394 z m 9.7069,0 -3.01893,5.2291376 c 0.71585,0.084164 1.42633,0.1868858 2.12906,0.3121263 l 3.19929,-5.5412639 z M 26.338518,4.5098743 c -0.365255,0.060248 -0.728631,0.1268941 -1.088824,0.202057 l 5.500957,7.5716287 c 0.31178,-0.139269 0.626285,-0.27342 0.942579,-0.404109 z m 111.681032,0 -5.35471,7.3700927 c 0.31594,0.130548 0.63011,0.264483 0.94155,0.403593 l 5.50095,-7.5716287 c -0.35986,-0.075107 -0.72287,-0.1418352 -1.08779,-0.202057 z M 16.353598,8.3639035 c -0.283273,0.1824646 -0.561842,0.3715068 -0.837676,0.564306 l 7.347355,8.1602265 c 0.261316,-0.208511 0.524613,-0.414563 0.791683,-0.615985 z m 131.649842,5.292e-4 -7.30085,8.1085503 c 0.26704,0.201396 0.53092,0.406982 0.7922,0.615466 l 7.34684,-8.1597077 C 148.56567,8.7358468 148.28685,8.546982 148.00344,8.3644327 Z M 8.8899698,15.554691 c -0.1927543,0.275796 -0.3813652,0.554445 -0.5637901,0.837676 l 8.1080323,7.300846 c 0.201276,-0.266816 0.406601,-0.530611 0.614949,-0.791683 z m 146.5776102,0 -8.15919,7.346839 c 0.2085,0.26126 0.41405,0.525187 0.61547,0.792199 l 8.10803,-7.300846 c -0.18255,-0.283408 -0.37141,-0.562226 -0.56431,-0.838192 z M 4.6736889,25.288466 c -0.075179,0.36023 -0.1417881,0.723529 -0.2020539,1.088821 l 7.368542,5.35368 c 0.13067,-0.316191 0.264864,-0.630383 0.404111,-0.942063 z m 155.0106911,5.29e-4 -7.5706,5.500439 c 0.13915,0.311475 0.27302,0.625565 0.4036,0.941546 l 7.36854,-5.35368 c -0.0602,-0.365072 -0.1264,-0.728287 -0.20154,-1.088305 z M 4.1181684,35.99374 v 2.309421 l 5.2281044,3.018938 C 9.43045,40.606081 9.5331163,39.8954 9.6583991,39.192513 Z m 156.1212216,5.29e-4 -5.54023,3.19877 c 0.12524,0.702726 0.22797,1.413222 0.31212,2.129071 l 5.22811,-3.018423 z M 4.1181684,46.915039 v 1.095023 l 4.9754062,2.215369 v -1.095023 z m 156.1212216,5.29e-4 -4.97541,2.215369 v 1.095024 l 4.97541,-2.21537 z M 4.1181684,56.3279 v 1.051616 l 4.9754062,1.616956 v -1.051616 z m 156.1212216,5.29e-4 -4.97541,1.616441 v 1.051615 l 4.97541,-1.61644 z M 4.1181684,65.113927 v 1.022159 l 4.9754062,1.057818 v -1.02216 z m 156.1212216,0 -4.97541,1.057817 v 1.02216 l 4.97541,-1.057299 z M 4.1181684,73.510831 v 1.005623 l 4.9754062,0.522965 v -1.005623 z m 156.1212216,5.29e-4 -4.97541,0.522967 v 1.005105 l 4.97541,-0.522965 z M 4.1181684,80.71711 v 3.000332 H 17.096704 V 80.71711 Z m 143.1426816,0 v 3.000332 h 12.97854 V 80.71711 Z M 9.0935746,89.395649 4.1181684,89.918614 v 1.006658 l 4.9754062,-0.522965 z m 146.1704054,0 v 1.006658 l 4.97541,0.522965 V 89.918614 Z M 9.0935746,97.240648 4.1181684,98.298466 v 1.022675 l 4.9754062,-1.057817 z m 146.1704054,0 v 1.022676 l 4.97541,1.057817 V 98.297947 Z M 9.0935746,105.43808 4.1181684,107.05504 v 1.05161 l 4.9754062,-1.61695 z m 146.1704054,0 v 1.05162 l 4.97541,1.61644 v -1.05162 z m 0,8.77052 v 1.09503 l 4.97541,2.21537 v -1.09503 z m -146.1704054,5.3e-4 -4.9754062,2.21537 v 1.09503 l 4.9754062,-2.21537 z m 0.2526982,8.90334 -5.2281044,3.01893 v 2.30942 l 5.5402307,-3.19877 C 9.5331189,124.53917 9.43045,123.82848 9.3462728,123.11247 Z m 145.6650072,0 c -0.0842,0.71601 -0.18685,1.4267 -0.31212,2.12958 l 5.54023,3.19826 v -2.30942 z m -143.171103,9.59114 -7.3690587,5.35368 c 0.060263,0.36545 0.1268627,0.72895 0.2020546,1.08934 l 7.5711151,-5.50096 c -0.139247,-0.31168 -0.273441,-0.62587 -0.404111,-0.94206 z m 140.677203,0 c -0.13067,0.31619 -0.26487,0.63038 -0.40411,0.94206 l 7.57111,5.50096 c 0.0752,-0.3602 0.14181,-0.72355 0.20206,-1.08882 z m -136.083684,8.03775 -8.1085482,7.30137 c 0.1824594,0.2833 0.3715094,0.56181 0.564306,0.83767 l 8.1597072,-7.34735 c -0.20846,-0.26122 -0.414086,-0.52472 -0.615465,-0.79169 z m 131.490164,0 c -0.20138,0.26697 -0.407,0.53047 -0.61547,0.79169 l 8.15971,7.34735 c 0.1928,-0.27583 0.38184,-0.5544 0.56431,-0.83767 z m -67.24499,6.55826 v 12.97854 h 2.999817 v -12.97855 z m -57.815593,0.047 -7.347355,8.16023 c 0.276175,0.19301 0.555077,0.38217 0.838708,0.56482 l 7.301362,-8.10906 c -0.267316,-0.20161 -0.531161,-0.40729 -0.792715,-0.61599 z m 118.631003,0 c -0.2615,0.20866 -0.52546,0.41443 -0.79272,0.61599 l 7.30136,8.10854 c 0.28365,-0.18266 0.56253,-0.37179 0.83871,-0.56482 z m -110.743629,4.80488 -5.500957,7.57163 c 0.360193,0.0752 0.723569,0.1413 1.088824,0.20154 l 5.354193,-7.36906 c -0.31614,-0.13064 -0.630425,-0.2649 -0.94206,-0.40411 z m 102.856249,0 c -0.31157,0.13918 -0.62598,0.27298 -0.94206,0.40359 l 5.35471,7.36958 c 0.36513,-0.0602 0.72824,-0.12691 1.08831,-0.20206 z m -94.452111,2.58537 -3.199289,5.54126 h 2.309421 l 3.019454,-5.22914 c -0.71602,-0.0842 -1.426689,-0.18685 -2.129586,-0.31212 z m 86.048491,0 c -0.70289,0.12528 -1.41356,0.22794 -2.12958,0.31212 l 3.01893,5.22914 h 2.30994 z m -76.110596,0.56482 -2.215885,4.97644 h 1.095539 l 2.215885,-4.97644 z m 8.813933,0 -1.616956,4.97644 h 1.051615 l 1.616956,-4.97644 z m 8.226888,0 -1.057818,4.97644 h 1.02216 l 1.057817,-4.97644 z m 7.8605,0 -0.522964,4.97644 h 1.006657 l 0.522965,-4.97644 z m 15.362886,0 0.522967,4.97644 h 1.005623 l -0.522964,-4.97644 z m 7.845517,0 1.057818,4.97644 h 1.022159 l -1.057817,-4.97644 z m 8.197432,0 1.61696,4.97644 h 1.05161 l -1.61695,-4.97644 z m 8.77052,0 2.21537,4.97644 h 1.09503 l -2.21589,-4.97644 z"
       style="color:#000000;font-style:normal;font-variant:normal;font-weight:normal;font-stretch:normal;font-size:medium;line-height:normal;font-family:sans-serif;font-variant-ligatures:normal;font-variant-position:normal;font-variant-caps:normal;font-variant-numeric:normal;font-variant-alternates:normal;font-feature-settings:normal;text-indent:0;text-align:start;text-decoration:none;text-decoration-line:none;text-decoration-style:solid;text-decoration-color:#000000;letter-spacing:normal;word-spacing:normal;text-transform:none;writing-mode:lr-tb;direction:ltr;text-orientation:mixed;dominant-baseline:auto;baseline-shift:baseline;text-anchor:start;white-space:normal;shape-padding:0;clip-rule:nonzero;display:inline;overflow:visible;visibility:visible;opacity:1;isolation:auto;mix-blend-mode:normal;color-interpolation:sRGB;color-interpolation-filters:linearRGB;solid-color:#000000;solid-opacity:1;vector-effect:none;fill:#000000;fill-opacity:1;fill-rule:nonzero;stroke:none;stroke-width:1;stroke-linecap:round;stroke-linejoin:miter;stroke-miterlimit:4;stroke-dasharray:none;stroke-dashoffset:0;stroke-opacity:1;color-rendering:auto;image-rendering:auto;shape-rendering:auto;text-rendering:auto;enable-background:accumulate" />
  </g>
</svg>
