<?xml version="1.0" encoding="UTF-8" standalone="no"?>
<svg
   xmlns:dc="http://purl.org/dc/elements/1.1/"
   xmlns:cc="http://creativecommons.org/ns#"
   xmlns:rdf="http://www.w3.org/1999/02/22-rdf-syntax-ns#"
   xmlns:svg="http://www.w3.org/2000/svg"
   xmlns="http://www.w3.org/2000/svg"
   xmlns:sodipodi="http://sodipodi.sourceforge.net/DTD/sodipodi-0.dtd"
   xmlns:inkscape="http://www.inkscape.org/namespaces/inkscape"
   version="1.1"
   viewBox="0 0 16 16"
   height="16"
   width="16"
   id="svg817"
   sodipodi:docname="calendar-icon16.svg"
   inkscape:version="0.92.3 (2405546, 2018-03-11)">
  <metadata
     id="metadata823">
    <rdf:RDF>
      <cc:Work
         rdf:about="">
        <dc:format>image/svg+xml</dc:format>
        <dc:type
           rdf:resource="http://purl.org/dc/dcmitype/StillImage" />
        <dc:title />
      </cc:Work>
    </rdf:RDF>
  </metadata>
  <defs
     id="defs821" />
  <sodipodi:namedview
     pagecolor="#ffffff"
     bordercolor="#666666"
     borderopacity="1"
     objecttolerance="10"
     gridtolerance="10"
     guidetolerance="10"
     inkscape:pageopacity="0"
     inkscape:pageshadow="2"
     inkscape:window-width="1920"
     inkscape:window-height="1017"
     id="namedview819"
     showgrid="true"
     inkscape:zoom="47.641319"
     inkscape:cx="4.0978765"
     inkscape:cy="8.3148527"
     inkscape:window-x="-8"
     inkscape:window-y="-8"
     inkscape:window-maximized="1"
     inkscape:current-layer="svg817"
     inkscape:snap-grids="true">
    <inkscape:grid
       type="xygrid"
       id="grid814" />
  </sodipodi:namedview>
  <path
     style="fill:#000000;fill-opacity:0.39285715;stroke:none;stroke-width:0.96228188;stroke-linecap:round;stroke-linejoin:round;stroke-miterlimit:4;stroke-dasharray:none;stroke-opacity:1"
     d="M 3.984375,0.48256373 C 3.4328589,0.4911848 2.9924473,0.9447038 3,1.4962356 v 1 H 1 V 15 H 15 V 2.4962356 h -2 v -1 C 13.00772,0.93246573 12.548129,0.4737584 11.984375,0.48256373 11.432859,0.4911848 10.992447,0.9447038 11,1.4962356 v 1 H 5 v -1 C 5.0077201,0.93246573 4.548129,0.4737584 3.984375,0.48256373 Z M 3,3.84375 V 5 C 2.9808748,6.3523227 5.0191252,6.3523227 5,5 V 3.9277344 C 5.2892269,4.2095854 5.4525854,4.5961536 5.453125,5 c 0,0.8284271 -0.6715729,1.5 -1.5,1.5 -0.8284271,0 -1.5,-0.6715729 -1.5,-1.5 C 2.4537235,4.5522824 2.6542855,4.1282371 3,3.84375 Z m 10,0.00781 C 13.33924,4.1365525 13.535134,4.5569387 13.535156,5 c 0,0.8284271 -0.671573,1.5 -1.5,1.5 -0.828427,0 -1.5,-0.6715729 -1.5,-1.5 C 10.535588,4.5903569 10.703537,4.1987119 11,3.9160156 V 5 c -0.01913,1.3523227 2.019125,1.3523227 2,0 z M 3,8 h 4 v 4 H 3 Z"
     id="rect1372"
     inkscape:connector-curvature="0"
     sodipodi:nodetypes="ccccccccccccccccccccsccccscccccccccc" />
</svg>
