<?xml version="1.0" encoding="UTF-8" standalone="no"?>
<svg
   xmlns:dc="http://purl.org/dc/elements/1.1/"
   xmlns:cc="http://creativecommons.org/ns#"
   xmlns:rdf="http://www.w3.org/1999/02/22-rdf-syntax-ns#"
   xmlns:svg="http://www.w3.org/2000/svg"
   xmlns="http://www.w3.org/2000/svg"
   xmlns:sodipodi="http://sodipodi.sourceforge.net/DTD/sodipodi-0.dtd"
   xmlns:inkscape="http://www.inkscape.org/namespaces/inkscape"
   version="1.1"
   viewBox="0 0 16 16"
   height="16"
   width="16"
   id="svg817"
   sodipodi:docname="calendar-icon16.svg"
   inkscape:version="0.92.3 (2405546, 2018-03-11)">
  <metadata
     id="metadata823">
    <rdf:RDF>
      <cc:Work
         rdf:about="">
        <dc:format>image/svg+xml</dc:format>
        <dc:type
           rdf:resource="http://purl.org/dc/dcmitype/StillImage" />
        <dc:title></dc:title>
      </cc:Work>
    </rdf:RDF>
  </metadata>
  <defs
     id="defs821" />
  <sodipodi:namedview
     pagecolor="#ffffff"
     bordercolor="#666666"
     borderopacity="1"
     objecttolerance="10"
     gridtolerance="10"
     guidetolerance="10"
     inkscape:pageopacity="0"
     inkscape:pageshadow="2"
     inkscape:window-width="2400"
     inkscape:window-height="1271"
     id="namedview819"
     showgrid="false"
     inkscape:zoom="33.6875"
     inkscape:cx="8"
     inkscape:cy="6.812616"
     inkscape:window-x="-9"
     inkscape:window-y="-9"
     inkscape:window-maximized="1"
     inkscape:current-layer="svg817" />
  <path
     style="fill:#000000;fill-opacity:1;stroke:none;stroke-width:0.29950032;stroke-linecap:round;stroke-linejoin:round;stroke-miterlimit:4;stroke-dasharray:none;stroke-opacity:1"
     d="M 5.7544836,7.1948053 H 4.2129458 v 1.541538 h 1.5415378 v -1.541538 m 3.0830761,0 H 7.2960215 v 1.541538 h 1.5415382 v -1.541538 m 3.0830843,0 h -1.541542 v 1.541538 h 1.541542 V 7.1948053 M 13.462182,1.7994228 H 12.691413 V 0.25788498 H 11.149875 V 1.7994228 H 4.9837147 V 0.25788498 H 3.4421769 V 1.7994228 h -0.770769 c -0.8555535,0 -1.5415378,0.6936921 -1.5415378,1.5415379 V 14.131725 a 1.5415378,1.5415378 0 0 0 1.5415378,1.541537 H 13.462182 a 1.5415378,1.5415378 0 0 0 1.541537,-1.541537 V 3.3409607 A 1.5415378,1.5415378 0 0 0 13.462182,1.7994228 m 0,12.3323022 H 2.6714079 V 5.6532674 H 13.462182 Z"
     id="path825"
     inkscape:connector-curvature="0"
     sodipodi:nodetypes="cccccssccsss" />
</svg>
