<?xml version="1.0" encoding="UTF-8" standalone="no"?>
<!-- Created with Inkscape (http://www.inkscape.org/) -->

<svg
   xmlns:dc="http://purl.org/dc/elements/1.1/"
   xmlns:cc="http://creativecommons.org/ns#"
   xmlns:rdf="http://www.w3.org/1999/02/22-rdf-syntax-ns#"
   xmlns:svg="http://www.w3.org/2000/svg"
   xmlns="http://www.w3.org/2000/svg"
   xmlns:sodipodi="http://sodipodi.sourceforge.net/DTD/sodipodi-0.dtd"
   xmlns:inkscape="http://www.inkscape.org/namespaces/inkscape"
   width="210mm"
   height="297mm"
   viewBox="0 0 210 297"
   version="1.1"
   id="svg8"
   inkscape:version="0.92.3 (2405546, 2018-03-11)"
   sodipodi:docname="connect.svg">
  <defs
     id="defs2" />
  <sodipodi:namedview
     id="base"
     pagecolor="#ffffff"
     bordercolor="#666666"
     borderopacity="1.0"
     inkscape:pageopacity="0.0"
     inkscape:pageshadow="2"
     inkscape:zoom="1.2477061"
     inkscape:cx="121.1968"
     inkscape:cy="910.17314"
     inkscape:document-units="mm"
     inkscape:current-layer="layer1"
     showgrid="false"
     inkscape:window-width="2880"
     inkscape:window-height="1526"
     inkscape:window-x="-11"
     inkscape:window-y="-11"
     inkscape:window-maximized="1" />
  <metadata
     id="metadata5">
    <rdf:RDF>
      <cc:Work
         rdf:about="">
        <dc:format>image/svg+xml</dc:format>
        <dc:type
           rdf:resource="http://purl.org/dc/dcmitype/StillImage" />
        <dc:title></dc:title>
      </cc:Work>
    </rdf:RDF>
  </metadata>
  <g
     inkscape:label="Layer 1"
     inkscape:groupmode="layer"
     id="layer1">
    <g
       id="g4794">
      <g
         id="text4749"
         style="font-style:normal;font-variant:normal;font-weight:normal;font-stretch:normal;font-size:33.16110992px;line-height:1.25;font-family:National;-inkscape-font-specification:National;font-variant-ligatures:normal;font-variant-caps:normal;font-variant-numeric:normal;font-feature-settings:normal;text-align:start;letter-spacing:0px;word-spacing:0px;writing-mode:lr-tb;text-anchor:start;fill:#000000;fill-opacity:1;stroke:none;stroke-width:0.26458332"
         aria-label="Connect">
        <path
           inkscape:connector-curvature="0"
           id="path4766"
           style="letter-spacing:-1.05833328px;stroke-width:0.26458332"
           d="m 36.148733,94.808234 3.846689,2.022828 q -1.226961,2.487083 -3.28295,3.647718 -2.055989,1.12748 -5.040489,1.12748 -3.913011,0 -6.002161,-2.155471 -2.055988,-2.188633 -2.055988,-5.968999 0,-5.703711 3.050822,-8.9535 3.050822,-3.249789 7.229122,-3.249789 3.481916,0 5.239455,1.591733 1.7907,1.591734 2.221794,4.078817 l -4.708877,1.558572 q -0.165806,-1.525411 -0.829028,-2.3876 -0.663222,-0.89535 -2.254955,-0.89535 -2.487084,0 -3.913011,2.3876 -1.392767,2.354439 -1.392767,5.703711 0,2.08915 0.961672,3.28295 0.994833,1.160639 2.68605,1.160639 1.326444,0 2.321278,-0.5969 1.027994,-0.630061 1.923344,-2.354439 z" />
        <path
           inkscape:connector-curvature="0"
           id="path4768"
           style="letter-spacing:-1.05833328px;stroke-width:0.26458332"
           d="m 49.976112,85.523123 q 3.150306,0 4.974167,1.7907 1.857022,1.757539 1.857022,4.974167 0,3.647722 -2.122311,6.499577 -2.122311,2.818693 -6.366933,2.818693 -2.951339,0 -4.941006,-1.624893 -1.956505,-1.658055 -1.956505,-4.874683 0,-3.780367 2.122311,-6.665383 2.122311,-2.918178 6.433255,-2.918178 z m -0.331611,3.548239 q -1.624894,0 -2.553405,1.724378 -0.89535,1.724377 -0.89535,4.211461 0,1.591733 0.630061,2.3876 0.630061,0.795866 1.724377,0.795866 1.658056,0 2.586567,-1.724377 0.928511,-1.724378 0.928511,-4.244623 0,-1.525411 -0.663222,-2.321277 -0.630061,-0.829028 -1.757539,-0.829028 z" />
        <path
           inkscape:connector-curvature="0"
           id="path4770"
           style="letter-spacing:-1.05833328px;stroke-width:0.26458332"
           d="m 73.203112,90.729418 -0.928511,5.670549 q -0.09948,0.530578 0.03316,0.961672 0.132644,0.397934 0.862189,0.397934 0.232128,0 0.464255,-0.03316 0.232128,-0.03316 0.530578,-0.09948 L 73.4684,100.9762 q -0.563739,0.16581 -1.226961,0.26529 -0.630061,0.13264 -1.1938,0.13264 -2.122311,0 -2.951339,-1.09431 -0.829028,-1.094314 -0.497417,-3.150303 l 0.928511,-5.305778 q 0.165806,-1.127478 -0.165805,-1.857022 -0.29845,-0.762706 -1.49225,-0.762706 -0.961672,0 -1.857022,0.89535 -0.862189,0.89535 -1.226961,2.918178 l -1.425928,8.190791 h -4.509911 l 2.68605,-15.32043 h 3.946172 v 3.117145 q 0.729544,-1.691217 1.857022,-2.586567 1.160639,-0.89535 3.017661,-0.89535 1.7907,0 2.851856,1.061156 1.094316,1.027994 1.094316,2.785533 0,0.364772 -0.03316,0.696383 -0.03316,0.29845 -0.06632,0.663223 z" />
        <path
           inkscape:connector-curvature="0"
           id="path4772"
           style="letter-spacing:-1.05833328px;stroke-width:0.26458332"
           d="m 90.733134,90.729418 -0.928511,5.670549 q -0.09948,0.530578 0.03316,0.961672 0.132644,0.397934 0.862188,0.397934 0.232128,0 0.464256,-0.03316 0.232128,-0.03316 0.530578,-0.09948 l -0.696384,3.349267 q -0.563738,0.16581 -1.226961,0.26529 -0.630061,0.13264 -1.1938,0.13264 -2.122311,0 -2.951338,-1.09431 -0.829028,-1.094314 -0.497417,-3.150303 l 0.928511,-5.305778 q 0.165806,-1.127478 -0.165805,-1.857022 -0.29845,-0.762706 -1.49225,-0.762706 -0.961673,0 -1.857023,0.89535 -0.862188,0.89535 -1.226961,2.918178 L 79.88945,101.20833 H 75.37954 L 78.06559,85.8879 h 3.946172 v 3.117145 q 0.729544,-1.691217 1.857022,-2.586567 1.160639,-0.89535 3.017661,-0.89535 1.7907,0 2.851855,1.061156 1.094317,1.027994 1.094317,2.785533 0,0.364772 -0.03316,0.696383 -0.03316,0.29845 -0.06632,0.663223 z" />
        <path
           inkscape:connector-curvature="0"
           id="path4774"
           style="letter-spacing:-1.05833328px;stroke-width:0.26458332"
           d="m 99.972878,98.190667 q 1.027992,0 1.624892,-0.464255 0.63006,-0.464256 0.92851,-1.591734 l 4.21146,0.994834 q -0.69638,2.321277 -2.42076,3.415598 -1.69121,1.06115 -4.708874,1.06115 -3.183467,0 -4.941006,-1.790698 -1.757539,-1.823861 -1.757539,-4.841522 0,-4.543072 2.520245,-6.996995 2.553405,-2.453922 5.770034,-2.453922 3.24979,0 4.74204,1.724378 1.52541,1.691217 1.52541,3.813528 0,0.89535 -0.16581,1.757538 -0.1658,0.862189 -0.49741,1.49225 h -9.218792 q -0.265289,1.624895 0.364772,2.752373 0.630061,1.127477 2.022828,1.127477 z m -1.890183,-6.333772 h 4.808365 q 0.0332,-0.165805 0.0332,-0.364772 0.0332,-0.198967 0.0332,-0.431094 0,-0.928511 -0.4311,-1.591734 -0.43109,-0.663222 -1.52541,-0.663222 -1.160637,0 -1.890181,0.928511 -0.729545,0.89535 -1.027994,2.122311 z" />
        <path
           inkscape:connector-curvature="0"
           id="path4776"
           style="letter-spacing:-1.05833328px;stroke-width:0.26458332"
           d="m 117.68995,95.769906 4.37727,0.696384 q -0.72954,2.420761 -2.48708,3.78037 -1.72438,1.3596 -4.64256,1.3596 -3.05082,0 -4.90784,-1.691215 -1.85703,-1.724378 -1.85703,-4.808361 0,-3.714044 2.12232,-6.632222 2.12231,-2.951339 6.49957,-2.951339 3.08399,0 4.47675,1.691217 1.39277,1.658055 1.39277,3.946172 l -4.41043,0.762705 q 0.0332,-0.961672 -0.36477,-1.890183 -0.39793,-0.961672 -1.52541,-0.961672 -1.55857,0 -2.48708,1.757539 -0.92852,1.724378 -0.92852,4.045655 0,1.724378 0.63007,2.520245 0.63006,0.795866 1.69121,0.795866 0.92851,0 1.52541,-0.5969 0.63006,-0.630061 0.89535,-1.823861 z" />
        <path
           inkscape:connector-curvature="0"
           id="path4778"
           style="letter-spacing:-1.05833328px;stroke-width:0.26458332"
           d="m 132.16656,96.930545 v 3.747205 q -0.72954,0.43109 -1.85702,0.66322 -1.09432,0.26529 -2.22179,0.26529 -2.45393,0 -3.64773,-1.32644 -1.1938,-1.326447 -0.66322,-4.310947 l 1.1938,-6.665383 h -2.18863 l 0.5969,-3.415595 h 2.22179 l 0.56374,-3.249788 4.57623,-0.530578 -0.63006,3.780366 h 3.97934 l -0.5969,3.415595 h -3.97934 l -1.1938,6.632222 q -0.1658,0.994833 0.19897,1.392766 0.36477,0.364773 1.06116,0.364773 0.63006,0 1.29328,-0.198967 0.69638,-0.232128 1.29328,-0.563739 z" />
      </g>
      <path
         sodipodi:nodetypes="ccccc"
         inkscape:connector-curvature="0"
         id="path4781"
         d="m 21.451172,71.84375 -0.374865,3.208297 h 21.232422 l 0.374865,-3.208297 z"
         style="color:#000000;font-style:normal;font-variant:normal;font-weight:normal;font-stretch:normal;font-size:medium;line-height:normal;font-family:sans-serif;font-variant-ligatures:normal;font-variant-position:normal;font-variant-caps:normal;font-variant-numeric:normal;font-variant-alternates:normal;font-feature-settings:normal;text-indent:0;text-align:start;text-decoration:none;text-decoration-line:none;text-decoration-style:solid;text-decoration-color:#000000;letter-spacing:normal;word-spacing:normal;text-transform:none;writing-mode:lr-tb;direction:ltr;text-orientation:mixed;dominant-baseline:auto;baseline-shift:baseline;text-anchor:start;white-space:normal;shape-padding:0;clip-rule:nonzero;display:inline;overflow:visible;visibility:visible;opacity:1;isolation:auto;mix-blend-mode:normal;color-interpolation:sRGB;color-interpolation-filters:linearRGB;solid-color:#000000;solid-opacity:1;vector-effect:none;fill:#000000;fill-opacity:1;fill-rule:nonzero;stroke:none;stroke-width:3.47126961;stroke-linecap:butt;stroke-linejoin:miter;stroke-miterlimit:4;stroke-dasharray:none;stroke-dashoffset:0;stroke-opacity:1;color-rendering:auto;image-rendering:auto;shape-rendering:auto;text-rendering:auto;enable-background:accumulate" />
    </g>
  </g>
</svg>
