<?xml version="1.0" encoding="UTF-8" standalone="no"?>
<svg
   xmlns:dc="http://purl.org/dc/elements/1.1/"
   xmlns:cc="http://creativecommons.org/ns#"
   xmlns:rdf="http://www.w3.org/1999/02/22-rdf-syntax-ns#"
   xmlns:svg="http://www.w3.org/2000/svg"
   xmlns="http://www.w3.org/2000/svg"
   xmlns:sodipodi="http://sodipodi.sourceforge.net/DTD/sodipodi-0.dtd"
   xmlns:inkscape="http://www.inkscape.org/namespaces/inkscape"
   version="1.1"
   viewBox="0 0 51.603661 13.589996"
   height="13.589996"
   width="51.603661"
   id="svg817"
   sodipodi:docname="connect-logo.svg"
   inkscape:version="0.92.3 (2405546, 2018-03-11)">
  <metadata
     id="metadata823">
    <rdf:RDF>
      <cc:Work
         rdf:about="">
        <dc:format>image/svg+xml</dc:format>
        <dc:type
           rdf:resource="http://purl.org/dc/dcmitype/StillImage" />
        <dc:title></dc:title>
      </cc:Work>
    </rdf:RDF>
  </metadata>
  <defs
     id="defs821" />
  <sodipodi:namedview
     pagecolor="#ffffff"
     bordercolor="#666666"
     borderopacity="1"
     objecttolerance="10"
     gridtolerance="10"
     guidetolerance="10"
     inkscape:pageopacity="0"
     inkscape:pageshadow="2"
     inkscape:window-width="2880"
     inkscape:window-height="1526"
     id="namedview819"
     showgrid="true"
     inkscape:zoom="28.707047"
     inkscape:cx="25.80183"
     inkscape:cy="6.7949982"
     inkscape:window-x="-11"
     inkscape:window-y="-11"
     inkscape:window-maximized="1"
     inkscape:current-layer="svg817"
     inkscape:snap-grids="true"
     inkscape:snap-to-guides="false">
    <inkscape:grid
       type="xygrid"
       id="grid4752"
       originx="-3.2590273"
       originy="-5.6829811" />
  </sodipodi:namedview>
  <g
     aria-label="Connect"
     style="font-style:normal;font-variant:normal;font-weight:normal;font-stretch:normal;font-size:33.16110992px;line-height:1.25;font-family:National;-inkscape-font-specification:National;font-variant-ligatures:normal;font-variant-caps:normal;font-variant-numeric:normal;font-feature-settings:normal;text-align:start;letter-spacing:0px;word-spacing:0px;writing-mode:lr-tb;text-anchor:start;fill:#00467c;fill-opacity:1;stroke:none;stroke-width:0.26458332"
     id="text4749"
     transform="matrix(0.45661459,0,0,0.45661459,-9.6237493,-32.804904)" />
  <path
     id="path4781"
     style="color:#000000;font-style:normal;font-variant:normal;font-weight:normal;font-stretch:normal;font-size:medium;line-height:normal;font-family:sans-serif;font-variant-ligatures:normal;font-variant-position:normal;font-variant-caps:normal;font-variant-numeric:normal;font-variant-alternates:normal;font-feature-settings:normal;text-indent:0;text-align:start;text-decoration:none;text-decoration-line:none;text-decoration-style:solid;text-decoration-color:#000000;letter-spacing:normal;word-spacing:normal;text-transform:none;writing-mode:lr-tb;direction:ltr;text-orientation:mixed;dominant-baseline:auto;baseline-shift:baseline;text-anchor:start;white-space:normal;shape-padding:0;clip-rule:nonzero;display:inline;overflow:visible;visibility:visible;opacity:1;isolation:auto;mix-blend-mode:normal;color-interpolation:sRGB;color-interpolation-filters:linearRGB;solid-color:#000000;solid-opacity:1;vector-effect:none;fill:#00467c;fill-opacity:1;fill-rule:nonzero;stroke:none;stroke-width:1.58503234;stroke-linecap:butt;stroke-linejoin:miter;stroke-miterlimit:4;stroke-dasharray:none;stroke-dashoffset:0;stroke-opacity:1;color-rendering:auto;image-rendering:auto;shape-rendering:auto;text-rendering:auto;enable-background:accumulate"
     d="M 0.17116881,4.503125e-7 -2.048087e-8,1.4649557 H 9.6950336 L 9.8662025,4.503125e-7 Z M 50.934437,11.489832 v 1.711029 c -0.22208,0.131226 -0.504724,0.232174 -0.847943,0.302836 -0.333119,0.08076 -0.671287,0.121135 -1.014502,0.121135 -0.746998,0 -1.302201,-0.201892 -1.665606,-0.605672 -0.363402,-0.403784 -0.46435,-1.059931 -0.302836,-1.968442 l 0.545106,-3.0435109 h -0.99936 l 0.272553,-1.5596105 h 1.014502 L 48.193763,4.963696 50.283336,4.7214264 49.995641,6.4475966 h 1.817025 l -0.272553,1.5596105 h -1.817025 l -0.545106,3.0283689 c -0.05047,0.302837 -0.02018,0.514823 0.09085,0.635958 0.11104,0.11104 0.272554,0.16656 0.484541,0.16656 0.191797,0 0.388643,-0.03028 0.590531,-0.09085 0.211988,-0.07066 0.40883,-0.156466 0.590531,-0.257411 z m -6.819238,-0.5648 1.998725,0.317979 q -0.333118,1.105355 -1.135637,1.726173 -0.787377,0.620813 -2.11986,0.620813 -1.393049,0 -2.240992,-0.772234 -0.847947,-0.787376 -0.847947,-2.195567 0,-1.6958872 0.969083,-3.0283698 0.969077,-1.3476245 2.967798,-1.3476245 1.408195,0 2.044149,0.7722344 0.63596,0.7570921 0.63596,1.8018797 L 44.372611,9.168578 Q 44.38777,8.7294646 44.206052,8.3054929 44.024351,7.8663794 43.509527,7.8663794 q -0.711666,0 -1.135637,0.802518 -0.423976,0.7873761 -0.423976,1.8473046 0,0.787377 0.287699,1.150781 0.287695,0.363404 0.772232,0.363404 0.423971,0 0.696524,-0.272553 0.287695,-0.287695 0.40883,-0.832802 z m -8.089874,1.105355 q 0.469397,0 0.74195,-0.211985 0.287694,-0.211987 0.423971,-0.726809 l 1.923014,0.454255 q -0.317977,1.059929 -1.105354,1.559612 -0.772231,0.484537 -2.150141,0.484537 -1.453617,0 -2.256135,-0.817659 -0.802518,-0.832802 -0.802518,-2.21071 0,-2.0744326 1.15078,-3.1949297 1.165922,-1.1204966 2.634682,-1.1204966 1.483902,0 2.165285,0.7873762 0.696524,0.7722344 0.696524,1.7413125 0,0.4088299 -0.07571,0.8025175 -0.07571,0.3936881 -0.227125,0.6813831 h -4.209435 q -0.121134,0.741951 0.166561,1.256774 0.287695,0.514822 0.923652,0.514822 z M 35.16224,9.1382944 h 2.19557 q 0.01516,-0.075709 0.01516,-0.1665602 0.01516,-0.090851 0.01516,-0.1968438 0,-0.4239716 -0.196846,-0.7268089 -0.196842,-0.3028369 -0.696525,-0.3028369 -0.529964,0 -0.863084,0.4239717 -0.333121,0.4088299 -0.469397,0.9690781 z M 31.806323,8.623472 31.382352,11.212727 q -0.04542,0.24227 0.01514,0.439114 0.06057,0.181702 0.393688,0.181702 0.105993,0 0.211986,-0.01514 0.105993,-0.01514 0.242269,-0.04542 l -0.317979,1.529324 q -0.257411,0.07571 -0.560248,0.121135 -0.287695,0.06057 -0.545106,0.06057 -0.969079,0 -1.347624,-0.499678 -0.378547,-0.49968 -0.227128,-1.438474 L 29.671322,9.1231549 Q 29.747032,8.608332 29.595613,8.2752116 29.459337,7.9269489 28.91423,7.9269489 q -0.439114,0 -0.847943,0.4088299 -0.393688,0.4088299 -0.560249,1.3324826 l -0.651099,3.7400346 h -2.059291 l 1.22649,-6.9955318 h 1.80188 v 1.4233339 q 0.33312,-0.7722343 0.847943,-1.1810642 0.529965,-0.4088299 1.377908,-0.4088299 0.81766,0 1.302199,0.4845393 0.499681,0.4693971 0.499681,1.271915 0,0.1665603 -0.01514,0.3179787 -0.01514,0.1362766 -0.03028,0.3028373 z m -8.004463,0 -0.423972,2.589255 q -0.04542,0.24227 0.01514,0.439114 0.06057,0.181702 0.393688,0.181702 0.105993,0 0.211986,-0.01514 0.105993,-0.01514 0.24227,-0.04542 l -0.317979,1.529324 q -0.257411,0.07571 -0.560248,0.121135 -0.287695,0.06057 -0.545107,0.06057 -0.969078,0 -1.347624,-0.499678 -0.378546,-0.49968 -0.227128,-1.438474 L 21.666859,9.1231549 Q 21.742568,8.608332 21.59115,8.2752116 21.454873,7.9269489 20.909767,7.9269489 q -0.439114,0 -0.847944,0.4088299 -0.393688,0.4088299 -0.560248,1.3324826 l -0.6511,3.7400346 h -2.059291 l 1.22649,-6.9955318 h 1.80188 v 1.4233339 q 0.33312,-0.7722343 0.847943,-1.1810642 0.529965,-0.4088299 1.377908,-0.4088299 0.81766,0 1.302199,0.4845393 0.499681,0.4693971 0.499681,1.271915 0,0.1665603 -0.01514,0.3179787 -0.01514,0.1362766 -0.03028,0.3028373 z M 13.370246,6.2462017 c 0.958984,0 1.716076,0.2725533 2.271277,0.8176598 0.565295,0.5350121 0.847944,1.2921042 0.847944,2.2712772 0,1.1104023 -0.323027,2.0996693 -0.969079,2.9678013 -0.646052,0.85804 -1.61513,1.287057 -2.907234,1.287057 -0.898417,0 -1.650462,-0.247316 -2.256136,-0.74195 -0.5955789,-0.504728 -0.8933683,-1.246678 -0.8933683,-2.225851 0,-1.1507811 0.323026,-2.1652847 0.9690783,-3.0435116 0.646052,-0.8883218 1.625225,-1.3324827 2.937518,-1.3324827 z m -0.151418,1.6201777 c -0.494634,0 -0.883275,0.2624589 -1.165922,0.7873762 -0.272554,0.5249173 -0.40883,1.165922 -0.40883,1.9230144 0,0.484539 0.0959,0.847943 0.287695,1.090213 0.191796,0.242269 0.454255,0.363404 0.787375,0.363404 0.504728,0 0.898417,-0.262458 1.181065,-0.787376 0.282647,-0.524917 0.423971,-1.170969 0.423971,-1.9381563 0,-0.4643501 -0.100945,-0.8176598 -0.302837,-1.059929 -0.191796,-0.252364 -0.459302,-0.3785463 -0.802517,-0.3785463 z m -6.1275304,2.6195396 1.7564543,0.923653 c -0.3734988,0.757092 -0.8731799,1.312292 -1.4990428,1.665601 -0.6258634,0.343214 -1.3930503,0.514824 -2.3015608,0.514824 -1.1911587,0 -2.1047171,-0.328073 -2.7406743,-0.98422 -0.6258629,-0.666241 -0.9387941,-1.574752 -0.9387941,-2.7255318 0,-1.7362651 0.4643496,-3.0990313 1.3930498,-4.0882987 0.9286997,-0.9892674 2.0290071,-1.4839011 3.3009226,-1.4839011 1.0599289,0 1.8573994,0.2422697 2.3924116,0.7268085 0.5451065,0.4845393 0.8832743,1.1053553 1.0145035,1.8624474 L 7.3184255,7.608968 C 7.2679522,7.1446179 7.1417704,6.7812139 6.9398792,6.518755 6.737988,6.2462017 6.3947727,6.1099251 5.9102338,6.1099251 c -0.7570925,0 -1.3526718,0.3634045 -1.7867379,1.090213 -0.4239721,0.7167141 -0.6359577,1.5848467 -0.6359577,2.6043977 0,0.6359582 0.146371,1.1356382 0.4391135,1.4990432 0.3028368,0.353309 0.7116667,0.529964 1.2264896,0.529964 0.4037824,0 0.7570921,-0.09085 1.0599294,-0.272553 0.3129312,-0.191797 0.6056737,-0.550154 0.8782269,-1.075071 z" />
</svg>
