<?xml version="1.0" encoding="UTF-8" standalone="no"?>
<!-- Created with Inkscape (http://www.inkscape.org/) -->

<svg
   xmlns:dc="http://purl.org/dc/elements/1.1/"
   xmlns:cc="http://creativecommons.org/ns#"
   xmlns:rdf="http://www.w3.org/1999/02/22-rdf-syntax-ns#"
   xmlns:svg="http://www.w3.org/2000/svg"
   xmlns="http://www.w3.org/2000/svg"
   xmlns:sodipodi="http://sodipodi.sourceforge.net/DTD/sodipodi-0.dtd"
   xmlns:inkscape="http://www.inkscape.org/namespaces/inkscape"
   width="210mm"
   height="297mm"
   viewBox="0 0 210 297"
   version="1.1"
   id="svg8"
   inkscape:version="0.92.3 (2405546, 2018-03-11)"
   sodipodi:docname="key.svg">
  <defs
     id="defs2" />
  <sodipodi:namedview
     id="base"
     pagecolor="#ffffff"
     bordercolor="#666666"
     borderopacity="1.0"
     inkscape:pageopacity="0.0"
     inkscape:pageshadow="2"
     inkscape:zoom="0.58261935"
     inkscape:cx="350.63666"
     inkscape:cy="633.15942"
     inkscape:document-units="mm"
     inkscape:current-layer="layer1"
     showgrid="false"
     inkscape:window-width="2400"
     inkscape:window-height="1271"
     inkscape:window-x="-9"
     inkscape:window-y="-9"
     inkscape:window-maximized="1" />
  <metadata
     id="metadata5">
    <rdf:RDF>
      <cc:Work
         rdf:about="">
        <dc:format>image/svg+xml</dc:format>
        <dc:type
           rdf:resource="http://purl.org/dc/dcmitype/StillImage" />
        <dc:title></dc:title>
      </cc:Work>
    </rdf:RDF>
  </metadata>
  <g
     inkscape:label="Layer 1"
     inkscape:groupmode="layer"
     id="layer1">
    <path
       style="fill:#000000;stroke-width:4.14285707"
       d="m 252.36914,401.68555 c -77.38464,-1.3e-4 -140.11732,62.73254 -140.11719,140.11718 -1.3e-4,77.38464 62.73255,140.11732 140.11719,140.11719 50.28951,-0.0724 96.68334,-27.08977 121.56445,-70.79297 3.24397,-0.42177 7.22164,-0.5344 12.49219,-0.55664 17.83691,-0.0752 22.75689,-1.94839 32.88281,-12.51758 14.48145,-15.11535 18.57919,-15.41106 28.59766,-2.07031 4.27782,5.69643 9.78166,10.35547 12.23242,10.35547 l 44.09961,-39.04492 c 13.80926,13.6022 27.6185,27.20442 41.42774,40.80664 l 20.71484,-20.4043 20.71289,-20.40234 20.71875,20.40625 c 23.43534,23.08297 19.12755,24.40501 51.22852,-15.69922 10.55814,-13.19044 19.19726,-25.80391 19.19726,-28.0293 0,-2.22538 -11.45238,-17.99894 -25.44922,-35.05273 L 627.33984,477.91016 H 376.91992 c -23.94953,-46.74352 -72.02904,-76.168 -124.55078,-76.22461 z m -75.08789,109.43164 c 16.94729,-3.2e-4 30.68586,13.73825 30.68555,30.68554 3.2e-4,16.94729 -13.73826,30.68587 -30.68555,30.68555 -16.94729,3.2e-4 -30.68587,-13.73826 -30.68555,-30.68555 -3.1e-4,-16.94729 13.73826,-30.68586 30.68555,-30.68554 z"
       transform="scale(0.26458333)"
       id="path826"
       inkscape:connector-curvature="0"
       sodipodi:nodetypes="cccccccccccccssccccccccc" />
  </g>
</svg>
