<?xml version="1.0" encoding="UTF-8" standalone="no"?>
<svg
   xmlns:dc="http://purl.org/dc/elements/1.1/"
   xmlns:cc="http://creativecommons.org/ns#"
   xmlns:rdf="http://www.w3.org/1999/02/22-rdf-syntax-ns#"
   xmlns:svg="http://www.w3.org/2000/svg"
   xmlns="http://www.w3.org/2000/svg"
   xmlns:sodipodi="http://sodipodi.sourceforge.net/DTD/sodipodi-0.dtd"
   xmlns:inkscape="http://www.inkscape.org/namespaces/inkscape"
   id="svg4"
   width="16"
   height="16"
   viewBox="0 0 16 16"
   version="1.1"
   sodipodi:docname="optclinic-icon16.svg"
   inkscape:version="0.92.3 (2405546, 2018-03-11)">
  <sodipodi:namedview
     pagecolor="#ffffff"
     bordercolor="#666666"
     borderopacity="1"
     objecttolerance="10"
     gridtolerance="10"
     guidetolerance="10"
     inkscape:pageopacity="0"
     inkscape:pageshadow="2"
     inkscape:window-width="1920"
     inkscape:window-height="1017"
     id="namedview819"
     showgrid="false"
     inkscape:zoom="53"
     inkscape:cx="4.7830189"
     inkscape:cy="8"
     inkscape:window-x="-8"
     inkscape:window-y="-8"
     inkscape:window-maximized="1"
     inkscape:current-layer="svg4" />
  <metadata
     id="metadata10">
    <rdf:RDF>
      <cc:Work
         rdf:about="">
        <dc:format>image/svg+xml</dc:format>
        <dc:type
           rdf:resource="http://purl.org/dc/dcmitype/StillImage" />
        <dc:title></dc:title>
      </cc:Work>
    </rdf:RDF>
  </metadata>
  <defs
     id="defs8" />
  <path
     style="fill:#000000;fill-opacity:1;stroke:none;stroke-width:0.42172793;stroke-linecap:round;stroke-linejoin:round;stroke-miterlimit:4;stroke-dasharray:none;stroke-opacity:1"
     d="M 5.0976562 1.0898438 L 0.56445312 4.9355469 L 2.2011719 4.9335938 L 2.2011719 14.611328 L 13.730469 14.611328 L 13.730469 4.9082031 L 15.472656 4.9042969 L 10.865234 1.0898438 L 5.0976562 1.0898438 z M 10.216797 6.8769531 C 12.126547 7.8970689 13.462891 9.8496094 13.462891 9.8496094 C 13.462891 9.8496094 11.025836 13.431641 8.0195312 13.431641 C 5.0132261 13.431641 2.5742187 9.8496094 2.5742188 9.8496094 C 2.5742188 9.8496094 3.7694191 8.1305294 5.5019531 7.0761719 A 3.0754716 3.0754716 0 0 0 4.8671875 8.9433594 A 3.0754716 3.0754716 0 0 0 7.9433594 12.019531 A 3.0754716 3.0754716 0 0 0 11.019531 8.9433594 A 3.0754716 3.0754716 0 0 0 10.216797 6.8769531 z M 7.9433594 7.6796875 A 1.2641511 1.2641511 0 0 1 9.2070312 8.9433594 A 1.2641511 1.2641511 0 0 1 7.9433594 10.208984 A 1.2641511 1.2641511 0 0 1 6.6796875 8.9433594 A 1.2641511 1.2641511 0 0 1 7.9433594 7.6796875 z "
     id="path4558" />
</svg>
