<?xml version="1.0" encoding="UTF-8" standalone="no"?>
<svg
   xmlns:dc="http://purl.org/dc/elements/1.1/"
   xmlns:cc="http://creativecommons.org/ns#"
   xmlns:rdf="http://www.w3.org/1999/02/22-rdf-syntax-ns#"
   xmlns:svg="http://www.w3.org/2000/svg"
   xmlns="http://www.w3.org/2000/svg"
   xmlns:sodipodi="http://sodipodi.sourceforge.net/DTD/sodipodi-0.dtd"
   xmlns:inkscape="http://www.inkscape.org/namespaces/inkscape"
   version="1.1"
   viewBox="0 0 16 16"
   height="16"
   width="16"
   id="svg817"
   sodipodi:docname="phone-icon16.svg"
   inkscape:version="0.92.3 (2405546, 2018-03-11)">
  <metadata
     id="metadata823">
    <rdf:RDF>
      <cc:Work
         rdf:about="">
        <dc:format>image/svg+xml</dc:format>
        <dc:type
           rdf:resource="http://purl.org/dc/dcmitype/StillImage" />
        <dc:title />
      </cc:Work>
    </rdf:RDF>
  </metadata>
  <defs
     id="defs821" />
  <sodipodi:namedview
     pagecolor="#ffffff"
     bordercolor="#666666"
     borderopacity="1"
     objecttolerance="10"
     gridtolerance="10"
     guidetolerance="10"
     inkscape:pageopacity="0"
     inkscape:pageshadow="2"
     inkscape:window-width="2400"
     inkscape:window-height="1271"
     id="namedview819"
     showgrid="false"
     inkscape:zoom="33.6875"
     inkscape:cx="8"
     inkscape:cy="6.812616"
     inkscape:window-x="-9"
     inkscape:window-y="-9"
     inkscape:window-maximized="1"
     inkscape:current-layer="svg817" />
  <path
     style="fill:#000000;fill-opacity:1;stroke:none;stroke-width:0.38857344;stroke-linecap:round;stroke-linejoin:round;stroke-miterlimit:4;stroke-dasharray:none;stroke-opacity:1"
     d="m 3.8256895,7.1704576 c 1.1550279,2.2699503 3.0159061,4.1308284 5.2858571,5.2858564 l 1.7646254,-1.764625 c 0.224589,-0.22459 0.537409,-0.288758 0.818145,-0.200527 0.898355,0.296778 1.860878,0.457199 2.863506,0.457199 a 0.80210265,0.80210265 0 0 1 0.802103,0.802102 v 2.80736 A 0.80210265,0.80210265 0 0 1 14.557823,15.359926 13.635745,13.635745 0 0 1 0.92207792,1.7241805 0.80210265,0.80210265 0 0 1 1.7241805,0.92207792 H 4.5315398 A 0.80210265,0.80210265 0 0 1 5.3336425,1.7241805 c 0,1.0026284 0.1604206,1.9651516 0.4571985,2.8635065 0.088231,0.280736 0.024063,0.593556 -0.2005256,0.8181448 z"
     id="path825"
     inkscape:connector-curvature="0"
     sodipodi:nodetypes="cccccssccsss" />
</svg>
