<?xml version="1.0" encoding="UTF-8" standalone="no"?>
<svg
   xmlns:dc="http://purl.org/dc/elements/1.1/"
   xmlns:cc="http://creativecommons.org/ns#"
   xmlns:rdf="http://www.w3.org/1999/02/22-rdf-syntax-ns#"
   xmlns:svg="http://www.w3.org/2000/svg"
   xmlns="http://www.w3.org/2000/svg"
   xmlns:sodipodi="http://sodipodi.sourceforge.net/DTD/sodipodi-0.dtd"
   xmlns:inkscape="http://www.inkscape.org/namespaces/inkscape"
   id="svg4"
   width="16"
   height="16"
   viewBox="0 0 16 16"
   version="1.1"
   sodipodi:docname="search-icon16.svg"
   inkscape:version="0.92.3 (2405546, 2018-03-11)">
  <sodipodi:namedview
     pagecolor="#ffffff"
     bordercolor="#666666"
     borderopacity="1"
     objecttolerance="10"
     gridtolerance="10"
     guidetolerance="10"
     inkscape:pageopacity="0"
     inkscape:pageshadow="2"
     inkscape:window-width="1920"
     inkscape:window-height="1017"
     id="namedview819"
     showgrid="false"
     inkscape:zoom="53"
     inkscape:cx="8"
     inkscape:cy="8"
     inkscape:window-x="-8"
     inkscape:window-y="-8"
     inkscape:window-maximized="1"
     inkscape:current-layer="svg4" />
  <metadata
     id="metadata10">
    <rdf:RDF>
      <cc:Work
         rdf:about="">
        <dc:format>image/svg+xml</dc:format>
        <dc:type
           rdf:resource="http://purl.org/dc/dcmitype/StillImage" />
        <dc:title></dc:title>
      </cc:Work>
    </rdf:RDF>
  </metadata>
  <defs
     id="defs8" />
  <path
     style="fill:#000000;fill-opacity:0.39285715;stroke:none;stroke-width:2.04314327;stroke-linecap:round;stroke-linejoin:round;stroke-miterlimit:4;stroke-dasharray:none;stroke-opacity:1"
     d="M 9.4253523,0.35944865 A 6.0041425,6.0041425 0 0 0 3.4216238,6.363177 6.0041425,6.0041425 0 0 0 4.6447164,9.9825742 1.086523,0.8321718 45 0 0 4.2935512,10.172124 L 0.65420192,13.811473 A 1.0877729,0.83312941 45 1 0 2.1925454,15.349815 L 5.8318943,11.710467 A 1.086523,0.8321718 45 0 0 6.03142,11.307425 6.0041425,6.0041425 0 0 0 9.4253523,12.366906 6.0041425,6.0041425 0 0 0 15.429078,6.363177 6.0041425,6.0041425 0 0 0 9.4253523,0.35944865 Z m 0,1.52238085 A 4.4814226,4.4814226 0 0 1 13.906698,6.363177 4.4814226,4.4814226 0 0 1 9.4253523,10.844525 4.4814226,4.4814226 0 0 1 4.9440049,6.363177 4.4814226,4.4814226 0 0 1 9.4253523,1.8818295 Z"
     id="path820"
     inkscape:connector-curvature="0" />
</svg>
