<?xml version="1.0" encoding="UTF-8" standalone="no"?>
<svg
   xmlns:dc="http://purl.org/dc/elements/1.1/"
   xmlns:cc="http://creativecommons.org/ns#"
   xmlns:rdf="http://www.w3.org/1999/02/22-rdf-syntax-ns#"
   xmlns:svg="http://www.w3.org/2000/svg"
   xmlns="http://www.w3.org/2000/svg"
   xmlns:sodipodi="http://sodipodi.sourceforge.net/DTD/sodipodi-0.dtd"
   xmlns:inkscape="http://www.inkscape.org/namespaces/inkscape"
   version="1.1"
   viewBox="0 0 16 16"
   height="16"
   width="16"
   id="svg817"
   sodipodi:docname="teach-icon16.svg"
   inkscape:version="0.92.3 (2405546, 2018-03-11)">
  <metadata
     id="metadata823">
    <rdf:RDF>
      <cc:Work
         rdf:about="">
        <dc:format>image/svg+xml</dc:format>
        <dc:type
           rdf:resource="http://purl.org/dc/dcmitype/StillImage" />
        <dc:title></dc:title>
      </cc:Work>
    </rdf:RDF>
  </metadata>
  <defs
     id="defs821" />
  <sodipodi:namedview
     pagecolor="#ffffff"
     bordercolor="#666666"
     borderopacity="1"
     objecttolerance="10"
     gridtolerance="10"
     guidetolerance="10"
     inkscape:pageopacity="0"
     inkscape:pageshadow="2"
     inkscape:window-width="2400"
     inkscape:window-height="1271"
     id="namedview819"
     showgrid="false"
     inkscape:zoom="33.6875"
     inkscape:cx="8"
     inkscape:cy="8"
     inkscape:window-x="-9"
     inkscape:window-y="-9"
     inkscape:window-maximized="1"
     inkscape:current-layer="svg817" />
  <path
     style="fill:#000000;fill-opacity:1;stroke:none;stroke-width:0.51060975;stroke-linecap:round;stroke-linejoin:round;stroke-miterlimit:4;stroke-dasharray:none;stroke-opacity:1"
     d="M 5.0195312 1.9589844 A 2.374768 2.4766198 0 0 0 2.6464844 4.4355469 A 2.374768 2.4766198 0 0 0 5.0195312 6.9121094 A 2.374768 2.4766198 0 0 0 7.3945312 4.4355469 A 2.374768 2.4766198 0 0 0 5.0195312 1.9589844 z M 11.642578 3.8769531 A 2.0033092 2.0892294 0 0 0 9.640625 5.9667969 A 2.0033092 2.0892294 0 0 0 11.642578 8.0566406 A 2.0033092 2.0892294 0 0 0 13.644531 5.9667969 A 2.0033092 2.0892294 0 0 0 11.642578 3.8769531 z M 3.546875 7.0625 C 2.4803679 7.0625 1.6210937 7.9580685 1.6210938 9.0703125 L 1.6210938 12.144531 C 1.8627529 14.96458 8.0884143 14.882208 8.4199219 12.144531 L 8.4199219 9.0703125 C 8.4199219 7.9580685 7.5606477 7.0625 6.4941406 7.0625 L 3.546875 7.0625 z M 10.400391 8.1835938 C 9.5007006 8.1835938 8.7753906 8.9406481 8.7753906 9.8789062 L 8.7753906 12.470703 C 8.9792496 14.849643 14.230112 14.780156 14.509766 12.470703 L 14.509766 9.8789062 C 14.509766 8.9406481 13.786405 8.1835938 12.886719 8.1835938 L 10.400391 8.1835938 z "
     id="path825" />
</svg>
