<?xml version="1.0" encoding="UTF-8" standalone="no"?>
<svg
   xmlns:dc="http://purl.org/dc/elements/1.1/"
   xmlns:cc="http://creativecommons.org/ns#"
   xmlns:rdf="http://www.w3.org/1999/02/22-rdf-syntax-ns#"
   xmlns:svg="http://www.w3.org/2000/svg"
   xmlns="http://www.w3.org/2000/svg"
   xmlns:sodipodi="http://sodipodi.sourceforge.net/DTD/sodipodi-0.dtd"
   xmlns:inkscape="http://www.inkscape.org/namespaces/inkscape"
   version="1.1"
   viewBox="0 0 16 16"
   height="16"
   width="16"
   id="svg817"
   sodipodi:docname="unlock-icon16.svg"
   inkscape:version="0.92.3 (2405546, 2018-03-11)">
  <metadata
     id="metadata823">
    <rdf:RDF>
      <cc:Work
         rdf:about="">
        <dc:format>image/svg+xml</dc:format>
        <dc:type
           rdf:resource="http://purl.org/dc/dcmitype/StillImage" />
        <dc:title></dc:title>
      </cc:Work>
    </rdf:RDF>
  </metadata>
  <defs
     id="defs821" />
  <sodipodi:namedview
     pagecolor="#ffffff"
     bordercolor="#666666"
     borderopacity="1"
     objecttolerance="10"
     gridtolerance="10"
     guidetolerance="10"
     inkscape:pageopacity="0"
     inkscape:pageshadow="2"
     inkscape:window-width="2400"
     inkscape:window-height="1271"
     id="namedview819"
     showgrid="true"
     inkscape:zoom="47.641319"
     inkscape:cx="4.3057278"
     inkscape:cy="8"
     inkscape:window-x="-9"
     inkscape:window-y="-9"
     inkscape:window-maximized="1"
     inkscape:current-layer="svg817">
    <inkscape:grid
       type="xygrid"
       id="grid814" />
  </sodipodi:namedview>
  <path
     style="fill:#000000;fill-opacity:1;stroke:none;stroke-width:0.5;stroke-linecap:round;stroke-linejoin:round;stroke-miterlimit:4;stroke-dasharray:none;stroke-opacity:1"
     d="M 7.5566406 0.734375 C 7.0276846 0.7160339 6.4878614 0.80409165 5.9628906 1.0097656 C 4.0516074 1.7585596 3.0612104 3.813861 3.5742188 5.7519531 C 3.0196364 5.8566171 2.5957031 6.3203431 2.5957031 6.90625 L 2.5957031 14.511719 L 12.595703 14.511719 L 12.595703 6.90625 C 12.595703 6.2434222 12.061265 5.7089844 11.398438 5.7089844 L 4.9433594 5.7089844 C 4.4501738 4.3538796 5.1226936 2.8472415 6.4726562 2.3183594 C 7.8717477 1.7702214 9.4481771 2.4858375 9.9550781 3.9003906 L 10.167969 4.46875 L 11.417969 4 L 11.1875 3.3847656 C 10.6169 1.7924475 9.1435086 0.78939831 7.5566406 0.734375 z "
     id="path836" />
</svg>
